<?xml version="1.0" encoding="UTF-8" standalone="no"?><svg xmlns="http://www.w3.org/2000/svg" xmlns:xlink="http://www.w3.org/1999/xlink" fill="#ff5dbe" height="71" preserveAspectRatio="xMidYMid meet" version="1" viewBox="13.1 11.0 63.8 71.0" width="63.8" zoomAndPan="magnify"><g id="change1_1"><path d="M38.1,23.4c-0.3,0.1-0.5,0.2-0.8,0.2c-0.6,0-1.2-0.3-1.5-0.9l-3.4-6.3L31,17c-2.2,0.9-3.3,3.4-2.4,5.7l0.1,0.3l5.5,5.1 c7.1-1.5,14.5-1.5,21.5,0l5.5-5.1l0.1-0.3c0.9-2.2-0.2-4.8-2.4-5.7l-1.7-0.7l-3.3,6.1c-0.3,0.6-0.9,0.9-1.5,0.9 c-0.3,0-0.5-0.1-0.8-0.2c-0.8-0.4-1.1-1.5-0.7-2.3l4-7.4C54.1,12,52.6,11,50.8,11H39.1c-1.9,0-3.5,1.1-4.3,2.8l4,7.4 C39.2,21.9,38.9,23,38.1,23.4z" fill="inherit"/><path d="M56.1,30.9c-7.2-1.8-14.9-1.8-22.2-0.1C27.5,36,15.6,48.5,13.8,63.3c-0.7,5.3,0.4,9.7,3.3,12.9c2.6,2.9,6.1,4.4,9,5.1 c16.5-0.1,24-4.3,30.7-8.9c0.8-0.5,1.8-0.1,2.3,0.7c0.4,0.8,0,1.6-0.7,2.3c-3.6,3.5-6.7,5.4-9.5,6.6h10.1c0,0,0,0,0,0 c0.5,0,8.9-0.1,13.9-5.7c2.9-3.2,4-7.6,3.3-12.9C74.3,48.6,62.5,36.1,56.1,30.9z M41.3,52.2l3.6,0.7l4.5,0.9l0.3,0.1l0.2,0.1 c3.2,1.6,3.9,3.5,3.9,4.8V59c0,3.2-3,5.8-6.8,5.8h0v2.9h-3.4v-2.9h-0.7c-3.7,0-6.8-2.6-6.8-5.8v-1.3h3.4V59c0,1.3,1.6,2.4,3.4,2.4 H47c1.8,0,3.4-1.1,3.4-2.4v-0.2c0-0.3-0.5-0.9-1.8-1.7l-7.9-1.6l-0.5-0.1L40,55.3c-2.5-1.3-3.8-2.9-3.8-4.7v-0.2 c0-3.2,3-5.8,6.8-5.8h0.7v-2.7H47v2.7h0c3.7,0,6.8,2.6,6.8,5.8h-3.4c0-1.3-1.6-2.4-3.4-2.4h-4.1c-1.8,0-3.4,1.1-3.4,2.4v0.2 C39.5,50.9,39.9,51.5,41.3,52.2z" fill="inherit"/></g></svg>