<?xml version="1.0" encoding="UTF-8" standalone="no"?><svg xmlns="http://www.w3.org/2000/svg" xmlns:xlink="http://www.w3.org/1999/xlink" fill="#fbfbfb" height="509.2" preserveAspectRatio="xMidYMid meet" version="1" viewBox="-9.2 -0.6 754.0 509.2" width="754" zoomAndPan="magnify"><g id="change1_1"><path d="M720.705,74.7c-22.256,19.689-38.355,43.22-46.982,71.017c-6.149,19.813-8.547,40.845-11.886,61.451 c-1.682,10.375-1.466,21.043-2.576,31.529c-2.649,25.017-15.118,36.953-40.196,36.931c-18.768-0.016-37.534-1.7-61.257-2.89 c9.015,4.746,13.971,7.283,18.862,9.941c43.998,23.909,55.711,58.911,48.355,101.841c-3.008,17.549-19.467,33.351-31.467,48.644 c-11.846,15.097-24.528,30.024-39.057,42.434c-38.551,32.926-65.707,31.76-102.376-3.321c-31.099-29.751-48.3-68.015-63.268-107.434 c-2.468-6.499-4.819-13.043-7.703-20.866c-4.186,10.513-7.327,18.402-10.468,26.291c-1.854,0.245-3.709,0.489-5.563,0.734 c-3.646-8.333-7.291-16.666-11.427-26.12c-6.711,16.765-12.612,33.278-19.833,49.191c-17.253,38.019-37.859,73.448-74.969,96.305 c-15.369,9.466-32.523,13.728-46.916,4.454c-21.326-13.742-39.94-31.734-59.439-48.235c-3.929-3.325-6.019-8.889-10.044-12.024 c-26.17-20.383-42.42-61.883-33.469-91.905c8.626-28.934,26.798-50.748,55.022-63.251c2.953-1.308,5.724-3.027,12.949-6.895 c-18.996,1.126-32.91,2.114-46.841,2.748c-42.737,1.944-56.44-9.515-56.863-51.894c-0.369-36.89-8.937-71.526-23.78-104.641 c-4.905-10.944-14.23-19.999-22.001-29.538C21.194,81.442,13.192,74.92,7.662,66.693c-16.906-25.151-4.725-50.02,25.636-50.534 c50.391-0.852,97.814,12.357,138.005,42.608c33.815,25.452,65.444,54.217,95.634,83.959c29.295,28.862,55.525,60.835,87.026,95.798 c-3.402-5.741-3.14-12.788,0.437-17.997c-0.024-2.567-0.179-4.962-0.632-7.287c-6.024-30.904-12.746-61.671-19.217-92.487 c1.873-0.404,3.746-0.807,5.62-1.211c6.719,31.942,13.437,63.884,20.156,95.826c3.854-1.965,8.419-2.427,12.611-1.014 c12.249-30.09,15.277-62.608,19.454-94.824c1.664,0.242,3.327,0.483,4.991,0.725c-1.968,17.172-3.097,34.495-6.156,51.471 c-2.711,15.043-8.139,29.583-11.187,44.585c-0.178,0.874-0.263,1.77-0.309,2.679c4.239,4.948,5.339,12.303,2.034,18.519 c30.303-33.677,56.556-65.558,85.721-94.506c29.249-29.031,60.107-56.803,92.621-82.091c38.292-29.782,83.792-42.604,132.059-45.051 c15.836-0.803,31.731,0.793,39.604,17.226C739.566,49.363,732.492,64.272,720.705,74.7z" fill="inherit" opacity="0.6"/></g><g id="change2_1"><path d="M725.938,59.003c-22.256,19.689-38.355,43.22-46.982,71.017c-6.149,19.813-8.547,40.845-11.886,61.451 c-1.682,10.375-1.466,21.043-2.576,31.529c-2.649,25.017-15.118,36.953-40.196,36.931c-18.768-0.016-37.534-1.7-61.257-2.89 c9.015,4.746,13.971,7.283,18.862,9.941c43.998,23.909,55.711,58.911,48.354,101.841c-3.008,17.549-19.467,33.351-31.467,48.644 c-11.846,15.097-24.528,30.024-39.057,42.434c-38.551,32.926-65.707,31.76-102.376-3.321c-31.099-29.751-48.3-68.015-63.268-107.434 c-2.468-6.499-4.819-13.043-7.703-20.866c-4.186,10.513-7.327,18.402-10.468,26.291c-1.854,0.245-3.709,0.489-5.563,0.734 c-3.646-8.333-7.291-16.666-11.427-26.12c-6.711,16.765-12.612,33.278-19.833,49.191c-17.253,38.019-37.859,73.448-74.969,96.305 c-15.369,9.466-32.523,13.728-46.916,4.454c-21.326-13.742-39.94-31.734-59.439-48.235c-3.929-3.325-6.019-8.889-10.044-12.024 c-26.17-20.383-42.42-61.883-33.469-91.905c8.626-28.934,26.798-50.748,55.022-63.251c2.953-1.308,5.724-3.027,12.949-6.895 c-18.996,1.126-32.91,2.114-46.841,2.748c-42.737,1.944-56.44-9.515-56.863-51.894c-0.369-36.89-8.937-71.526-23.78-104.641 C49.838,92.094,40.513,83.039,32.743,73.5c-6.316-7.754-14.318-14.277-19.849-22.504C-4.012,25.845,8.17,0.975,38.53,0.462 C88.921-0.39,136.344,12.819,176.535,43.07c33.815,25.452,65.444,54.217,95.634,83.959c29.295,28.862,55.525,60.835,87.026,95.798 c-3.402-5.741-3.14-12.788,0.437-17.997c-0.024-2.567-0.179-4.962-0.632-7.287c-6.024-30.904-12.746-61.671-19.217-92.487 c1.873-0.404,3.746-0.807,5.62-1.211c6.719,31.942,13.437,63.884,20.156,95.826c3.854-1.965,8.419-2.427,12.611-1.014 c12.249-30.09,15.277-62.608,19.454-94.824c1.664,0.242,3.327,0.483,4.991,0.725c-1.968,17.172-3.097,34.495-6.156,51.471 c-2.711,15.043-8.139,29.583-11.187,44.585c-0.178,0.874-0.263,1.77-0.309,2.679c4.239,4.948,5.339,12.303,2.033,18.519 c30.303-33.677,56.556-65.558,85.721-94.506c29.249-29.031,60.107-56.803,92.621-82.091C603.63,15.433,649.129,2.612,697.396,0.164 C713.232-0.639,729.127,0.958,737,17.39C744.798,33.666,737.725,48.575,725.938,59.003z" fill="#ff5dbe"/></g><g id="change3_1"><path d="M583.547,327.309c-3.14,2.691-5.949,4.787-8.343,7.282c-1.187,1.237-1.453,3.309-2.428,4.813 c-0.706,1.089-1.894,1.865-3.639,3.507c0-3.133-0.061-4.766,0.025-6.391c0.044-0.826,0.076-2.048,0.584-2.389 c3.748-2.514,7.602-4.87,11.465-7.205C581.533,326.732,582.172,327.064,583.547,327.309z M727.104,39.819 c0.531,1.027,1.806,1.995,2.927,2.286c0.871,0.226,2.025-0.64,3.053-1.02c-0.653-0.658-1.385-1.257-1.936-1.992 c-0.54-0.72-1.254-1.569-1.273-2.376c-0.096-3.96-2.735-3.853-5.494-3.972C725.329,35.296,725.995,37.672,727.104,39.819z M442.793,194.194c0.227,0.124,0.453,0.248,0.68,0.371c0.42-3.177,0.689-6.382,1.297-9.523c0.719-3.719,0.639-3.883-4.331-3.448 C441.228,185.817,442.011,190.005,442.793,194.194z M468.772,415.113c-2.164,4.429,0.05,8.395,1.118,13.468 C473.797,422.982,469.965,419.187,468.772,415.113z M447.532,200.047c-0.973-0.009-2.116-0.351-2.884,0.041 c-1.697,0.868-2.191,6.079-1.103,8.321c1.314-2.012,2.617-3.811,3.68-5.741C447.618,201.954,447.446,200.929,447.532,200.047z M461.377,339.125c0-2.56,0-5.12,0-7.68c-0.602-0.015-1.203-0.031-1.805-0.046c-3.007,2.366-0.257,5.027,0.194,7.571 C460.303,339.022,460.84,339.074,461.377,339.125z M107.308,204.186c-3.2,3.712,0.64,7.25-0.303,10.907 c0.468-0.002,0.935-0.004,1.403-0.005c0.214-3.589,0.427-7.178,0.641-10.766C108.469,204.277,107.888,204.231,107.308,204.186z M455.172,282.311c0.555-0.243,1.206-1.408,1.044-1.937c-0.574-1.863-1.477-3.625-2.561-6.132c-2.772,3.114-1.709,5.236-0.452,7.222 C453.538,281.995,454.706,282.516,455.172,282.311z M467.533,394.999c1.604-2.418,2.12-4.429,0.103-6.161 c-0.411-0.353-2.26,0.164-2.715,0.802C462.979,392.365,465.425,393.404,467.533,394.999z M453.477,306.058 c1.735,1.584,3.469,3.168,5.204,4.752C457.889,305.99,457.684,305.793,453.477,306.058z M463.348,358.142 c-0.729-0.008-1.458-0.016-2.187-0.024c0,1.308-0.21,2.672,0.119,3.891c0.109,0.404,1.607,0.433,2.469,0.634 C463.616,361.143,463.482,359.643,463.348,358.142z M657.639,4.835c-0.099,0.019-0.199,0.038-0.298,0.057 c0.044,0.042,0.099,0.086,0.138,0.127C657.529,4.957,657.588,4.897,657.639,4.835z M105.783,229.046 c0.576,2.172,0.979,3.692,1.382,5.212C109.878,230.998,109.878,230.998,105.783,229.046z M455.024,271.855 c-0.29-1.559-0.737-3.088-1.145-4.625c-0.731,0.24-1.462,0.481-2.193,0.721c0.566,1.527,1.131,3.053,1.697,4.58 C453.956,272.301,455.046,271.975,455.024,271.855z M607.1,132.167c-0.254-0.527-0.508-1.054-0.762-1.58 c-1.43-0.192-2.86-0.384-5.184-0.696c1.138,2.185,1.728,3.319,2.279,4.375C604.831,133.465,605.966,132.816,607.1,132.167z M107.443,104.16c0,2.089,0,4.178,0,7.23C110.64,108.334,109.503,106.247,107.443,104.16z M458.845,326.819 c0.518-0.052,1.036-0.104,1.554-0.156c0-1.418,0-2.837,0-4.255c-0.72,0.126-2.068,0.283-2.064,0.375 C458.4,324.132,458.644,325.475,458.845,326.819z M270.741,340.45c-1.022,1.365-2.044,2.729-3.066,4.094 c0.518,0.406,1.035,0.812,1.553,1.218c1.077-1.274,2.153-2.547,3.23-3.821C271.886,341.444,271.314,340.947,270.741,340.45z M586.074,329.559c2.654,2.926,4.299,3.794,5.747-0.364C590.212,329.297,588.602,329.399,586.074,329.559z M707.041,64.232 c0,1.829,0,3.658,0,5.487c0.56,0.038,1.119,0.077,1.678,0.115c2.164-1.933-0.11-3.749-0.588-5.612 C707.769,64.226,707.405,64.229,707.041,64.232z M681.729,3.091c0.863,1.368,2.239,2.412,3.422,3.578 c0.217-0.242,0.434-0.485,0.651-0.727c-0.394-1.382-0.799-2.8-1.376-4.826c-0.536,0.049-1.072,0.098-1.607,0.15 C682.116,2.169,681.579,2.853,681.729,3.091z M471.886,456.872c-0.414,0.24-0.828,0.479-1.242,0.719 c0.717,1.412,1.435,2.824,2.424,4.771C475.623,458.755,473.808,457.79,471.886,456.872z M572.112,274.909 c0.176-0.14-0.444-1.28-0.697-1.959c-1.103,0.675-2.206,1.35-3.309,2.025c0.276,0.596,0.552,1.192,0.829,1.788 C570.014,276.171,571.161,275.664,572.112,274.909z M465.047,374.358c-0.391,0.093-0.781,0.185-1.172,0.278 c0.548,2.238,1.095,4.476,1.862,7.609C468.988,378.187,465.686,376.577,465.047,374.358z M146.208,99.688c0-2.664,0-4.684,0-6.705 c-0.414,0.009-0.827,0.018-1.241,0.027C144.003,95.059,143.185,97.105,146.208,99.688z M660.815,24.664 c-1.683,1.334-2.749,2.178-4.324,3.427C659.804,29.444,661.859,30.158,660.815,24.664z M597.385,128.441 c0.851-1.278,1.702-2.556,2.553-3.835c-0.58-0.41-1.16-0.821-1.739-1.231c-0.783,1.375-1.566,2.751-2.349,4.127 C596.362,127.815,596.873,128.128,597.385,128.441z M459.301,348.803c-0.046,0.674,0.976,1.421,1.942,2.67 c0.603-1.373,1.235-2.181,1.211-2.969c-0.018-0.576-0.899-1.126-1.395-1.688C460.43,347.475,459.348,348.104,459.301,348.803z M589.356,234.427c0.559-1.35,1.02-2.461,1.48-3.572C587.685,231.963,587.685,231.963,589.356,234.427z M551.275,157.485 c-0.027,0.077,1.114,0.711,1.162,0.65c0.684-0.862,1.274-1.8,1.886-2.719c-0.57-0.358-1.139-0.716-1.709-1.074 C552.149,155.382,551.654,156.413,551.275,157.485z M471.942,438.706c-0.35-1.422-0.701-2.844-1.052-4.266 c-0.55,0.133-1.1,0.266-1.65,0.4c0.359,1.416,0.717,2.832,1.076,4.247C470.857,438.96,471.399,438.833,471.942,438.706z M410.004,313.425c0.731,0.01,1.462,0.02,2.193,0.03c-0.09-1.065-0.075-2.158-0.354-3.171c-0.058-0.212-1.198-0.126-1.839-0.178 C410.004,311.213,410.004,312.319,410.004,313.425z M406.709,380.145c0.324,0.731,0.654,1.458,0.982,2.187 c0.194-0.235,0.389-0.47,0.583-0.705C407.752,381.133,407.23,380.639,406.709,380.145z M152.618,370.735 c-0.507,0.048-1.015,0.095-1.522,0.143c0.067,1.408,0.134,2.815,0.202,4.223c0.657-0.034,1.314-0.067,1.971-0.101 C153.051,373.578,152.834,372.156,152.618,370.735z M480.428,347.077c-0.602,0.15-1.204,0.3-1.806,0.45 c0.424,1.57,0.848,3.14,1.271,4.71c0.463-0.119,0.926-0.238,1.388-0.356C480.997,350.28,480.713,348.678,480.428,347.077z M459.835,274.383c0.075-0.17-0.782-0.754-1.491-1.405c-0.75,0.96-1.299,1.664-1.849,2.368c0.612,0.438,1.224,0.876,1.836,1.314 C458.857,275.913,459.471,275.204,459.835,274.383z M152.89,345.954c-0.636,0.202-1.271,0.405-1.906,0.607 c0.454,1.32,0.909,2.64,1.364,3.96c0.497-0.154,0.994-0.308,1.492-0.462C153.523,348.691,153.207,347.322,152.89,345.954z M564.62,107.057c0,1.563,0,3.127,0,4.69c0.56-0.02,1.121-0.042,1.682-0.062c-0.113-1.563-0.227-3.125-0.34-4.688 C565.515,107.018,565.067,107.038,564.62,107.057z M664.111,35.844c0.677-0.871,1.354-1.741,2.031-2.612 c-0.796-0.448-1.591-0.897-2.387-1.345c-0.319,1.092-0.638,2.183-0.957,3.275C663.235,35.389,663.673,35.616,664.111,35.844z M469.208,403.639c-0.752-0.043-1.505-0.086-2.258-0.128c0,1.106,0,2.212,0,3.318c0.622,0.053,1.245,0.105,1.867,0.157 C468.948,405.871,469.078,404.755,469.208,403.639z M109.535,34.087c-0.119-1.433-0.238-2.866-0.357-4.299 c-0.667,0.073-1.334,0.146-2.002,0.219c0.301,1.439,0.602,2.877,0.903,4.316C108.564,34.244,109.049,34.165,109.535,34.087z M676.476,8.376c0.039,0.525,0.079,1.051,0.118,1.576c1.31-0.117,2.62-0.234,3.93-0.351c-0.047-0.472-0.094-0.945-0.141-1.417 C679.08,8.248,677.778,8.312,676.476,8.376z M654.408,94.656c-0.507-0.05-1.014-0.1-1.521-0.15c-0.183,1.185-0.366,2.37-0.548,3.555 c0.578,0.054,1.156,0.107,1.735,0.161C654.185,97.033,654.297,95.844,654.408,94.656z M458.34,318.087 c0.047-0.024-0.172-0.571-0.364-1.185c-1.196,0.375-2.392,0.75-3.587,1.124c0.15,0.573,0.3,1.146,0.45,1.718 C456.012,319.203,457.19,318.673,458.34,318.087z M189.991,275.288c0.077-0.479-0.425-1.05-0.944-2.152 c-0.543,1.088-0.96,1.597-1.01,2.14c-0.032,0.347,0.477,0.745,0.744,1.12C189.21,276.03,189.923,275.711,189.991,275.288z M472.347,446.674c-0.614,0.381-1.212,0.981-1.473,1.636c-0.1,0.252,0.719,0.87,1.376,1.611c0.607-0.94,1.169-1.531,1.337-2.219 C473.648,447.455,472.509,446.574,472.347,446.674z M237.176,427.379c0.726-0.892,1.452-1.784,2.178-2.676 c-0.378-0.333-0.756-0.666-1.134-0.998c-0.964,0.643-1.929,1.287-2.893,1.931C235.943,426.218,236.559,426.798,237.176,427.379z M406.194,280.446c-0.975-0.839-1.951-1.678-2.927-2.516c-0.513,0.556-1.026,1.111-1.539,1.667c0.969,0.849,1.938,1.697,2.908,2.546 C405.156,281.578,405.675,281.012,406.194,280.446z M528.755,168.075c-0.428-0.098-0.856-0.195-1.284-0.293 c-0.371,1.141-0.742,2.282-1.114,3.423c0.534,0.167,1.067,0.334,1.601,0.501C528.223,170.496,528.489,169.285,528.755,168.075z M222.612,466.676c-0.147-0.455-0.295-0.91-0.442-1.366c-1.192,0.362-2.383,0.723-3.575,1.085c0.157,0.493,0.314,0.986,0.471,1.478 C220.248,467.474,221.43,467.075,222.612,466.676z M657.428,221.409c-0.596,0.132-1.192,0.263-1.789,0.395 c0.63,1.567,1.26,3.134,1.889,4.7c0.539-0.204,1.077-0.408,1.616-0.613C658.572,224.397,658,222.903,657.428,221.409z M147.179,199.228c0.567-0.116,1.134-0.231,1.7-0.347c-0.32-1.039-0.64-2.078-0.959-3.116c-0.419,0.17-1.205,0.361-1.197,0.505 C146.783,197.262,147.008,198.244,147.179,199.228z M680.94,62.744c-0.422,0.468-1.15,0.918-1.179,1.409 c-0.028,0.48,0.656,1.003,1.22,1.769c0.656-0.7,1.525-1.348,1.426-1.573C682.133,63.72,681.457,63.267,680.94,62.744z M665.712,57.509c-0.471-0.277-1.052-0.872-1.386-0.755c-0.468,0.164-1.074,0.891-1.027,1.311c0.049,0.432,0.77,1.027,1.269,1.108 c0.577,0.094,1.233-0.294,1.855-0.473C666.187,58.302,665.949,57.906,665.712,57.509z M676.027,47.808 c0.463,0.036,0.926,0.072,1.389,0.107c0.171-1.113,0.342-2.225,0.512-3.338c-0.581-0.065-1.162-0.129-1.743-0.194 C676.132,45.524,676.08,46.666,676.027,47.808z M667.243,46.381c-0.833-0.711-1.82-1.243-2.757-1.834 c-0.398,0.531-0.796,1.063-1.193,1.594c1.085,0.613,2.169,1.225,3.253,1.837C666.796,47.425,667.371,46.491,667.243,46.381z M449.275,240.35c0.456,1.229,0.911,2.458,1.367,3.686c0.397-0.145,0.794-0.289,1.191-0.434c-0.414-1.246-0.828-2.491-1.242-3.737 C450.152,240.027,449.713,240.188,449.275,240.35z M492.711,464.498c-0.437-0.37-0.875-0.739-1.312-1.108 c-0.588,0.973-1.175,1.946-1.762,2.919c0.553,0.286,1.543,0.88,1.592,0.811C491.804,466.304,492.239,465.388,492.711,464.498z M682.827,88.886c0.441,0.439,0.843,1.165,1.336,1.233c0.462,0.063,1.02-0.57,2.874-1.744c-1.288-0.438-1.984-0.925-2.535-0.796 C683.875,87.727,683.379,88.427,682.827,88.886z M700.855,83.745c0.411-0.002,0.822-0.003,1.233-0.005c0-1.148,0-2.296,0-3.445 c-0.411,0.003-0.822,0.005-1.233,0.008C700.855,81.451,700.855,82.598,700.855,83.745z M706.076,74.333 c0.139,1.289,0.256,2.38,0.374,3.472c0.457-0.053,0.914-0.106,1.371-0.16c0.027-0.032,0.052-0.064,0.079-0.096 c-0.13-0.947-0.231-1.9-0.43-2.832C707.441,74.581,706.909,74.552,706.076,74.333z M108.914,69.333 c-0.53-0.02-1.061-0.041-1.591-0.061c0,1.273,0,2.546,0,3.819c0.361,0.014,0.722,0.028,1.084,0.042 C108.576,71.866,108.745,70.599,108.914,69.333z M628.712,68.246c-0.935,0.618-1.87,1.236-2.805,1.853 c0.629,0.622,1.258,1.244,1.887,1.865c0.714-0.875,1.429-1.751,2.143-2.626C629.53,68.975,629.121,68.61,628.712,68.246z M571.683,285.431c0,1.138,0,2.276,0,3.415c0.601-0.038,1.203-0.077,1.804-0.115c-0.176-1.143-0.353-2.286-0.529-3.429 C572.533,285.344,572.108,285.388,571.683,285.431z M399.267,124.454c0.159,1.322,0.318,2.645,0.477,3.967 c0.134-0.019,0.269-0.039,0.403-0.058c0.135-1.302,0.265-2.604,0.396-3.906c-0.028-0.094-0.057-0.187-0.085-0.281 C400.061,124.268,399.664,124.361,399.267,124.454z M405.521,369.267c0.113-1.195,0.218-2.314,0.324-3.432 c-0.585-0.031-1.17-0.063-1.755-0.094c0,1.058-0.023,2.117,0.04,3.171C404.136,369.005,404.701,369.065,405.521,369.267z M404.922,329.473c-0.419,0.295-0.838,0.591-1.257,0.887c0.436,0.697,0.81,1.451,1.354,2.049c0.122,0.133,0.844-0.281,1.29-0.443 C405.847,331.135,405.385,330.304,404.922,329.473z M109.632,10.216c-0.102-0.226-0.204-0.453-0.306-0.679 c-0.639-0.186-1.283-0.356-1.923-0.535c0.185,0.602,0.37,1.205,0.555,1.807C108.516,10.611,109.074,10.414,109.632,10.216z M731.16,50.664c0,1.002,0,2.005,0,3.007c0.51-0.599,1.002-1.207,1.478-1.826c-0.065-0.435-0.13-0.87-0.195-1.304 C732.015,50.581,731.588,50.622,731.16,50.664z M641.366,160.098c-0.065-1.194-0.129-2.389-0.194-3.583 c-0.528-0.001-1.055-0.001-1.583-0.002c-0.073,1.196-0.146,2.393-0.219,3.589C640.036,160.101,640.701,160.099,641.366,160.098z M108.044,157.201c0.088,0.055,0.915-0.663,0.855-0.845c-0.233-0.712-0.685-1.354-1.283-2.432c-0.623,0.878-1.367,1.599-1.242,1.814 C106.73,156.353,107.414,156.805,108.044,157.201z M641.043,203.777c-0.463,0.037-0.927,0.073-1.391,0.11c0,1.183,0,2.365,0,3.548 c0.609-0.035,1.219-0.07,1.829-0.105C641.335,206.146,641.189,204.962,641.043,203.777z M153.431,387.133 c-0.163-0.986-0.325-1.972-0.488-2.958c-0.54,0.04-1.08,0.081-1.62,0.121c0.126,1.027,0.253,2.054,0.38,3.081 C152.279,387.295,152.855,387.214,153.431,387.133z M660.007,175.881c-1.474,0-2.948,0-4.422,0 c-0.028,0.287-0.056,0.574-0.084,0.861c1.388,0.29,2.776,0.579,4.164,0.869C659.779,177.034,659.893,176.457,660.007,175.881z M455.808,340.894c-0.655,0.226-1.232,0.837-1.661,1.422c-0.08,0.109,0.779,1.252,1.028,1.191c0.697-0.169,1.302-0.719,2.259-1.314 C456.694,341.575,456.099,340.793,455.808,340.894z M445.631,211.928c0.345,0.641,0.842,1.2,1.29,1.785 c0.312-0.261,0.625-0.521,0.937-0.782c-0.425-0.628-0.85-1.256-1.276-1.884C446.247,211.351,445.58,211.833,445.631,211.928z M444.297,217.991c-0.819,0.218-1.782,0.253-2.394,0.735c-0.3,0.236,0.054,1.302,0.187,2.882c1.26-1.431,1.925-2.187,2.591-2.943 C444.553,218.44,444.425,218.215,444.297,217.991z M641.474,131.967c0.106-0.187-0.59-1.109-0.665-1.078 c-0.723,0.298-1.481,0.638-2.018,1.177c-0.15,0.15,0.398,0.997,0.845,2.03C640.515,133.121,641.109,132.609,641.474,131.967z M518.297,478.64c-1.209-0.362-1.872-0.787-2.335-0.629c-0.378,0.13-0.516,0.957-0.761,1.475c0.406,0.179,0.872,0.577,1.202,0.485 C516.913,479.829,517.329,479.351,518.297,478.64z M472.954,187.443c-0.265,0.547-0.674,1.075-0.749,1.646 c-0.054,0.415,0.336,0.887,0.528,1.334c0.284-0.139,0.568-0.278,0.851-0.416c0.15-0.576,0.451-1.169,0.391-1.722 C473.941,187.971,473.315,187.721,472.954,187.443z M560.6,186.88c-0.402,0.396-0.804,0.792-1.207,1.188 c0.453,0.81,0.906,1.62,1.359,2.43c0.41-0.403,0.819-0.807,1.229-1.21C561.52,188.485,561.06,187.682,560.6,186.88z M40.505,39.167 c-0.11,0.174,0.336,0.7,0.638,1.275c0.459-0.492,0.937-0.776,1.001-1.134c0.072-0.401-0.23-0.869-0.369-1.308 C41.335,38.379,40.801,38.698,40.505,39.167z M653.27,35.474c0.258-0.354,0.516-0.707,0.962-1.317 c-0.751-0.444-1.362-0.837-2.019-1.128c-0.048-0.021-0.687,0.921-0.599,1.022C652.088,34.594,652.704,35.012,653.27,35.474z M637.622,44.887c0.484,0.669,0.968,1.338,1.451,2.007c0.351-0.307,0.702-0.613,1.053-0.92c-0.6-0.545-1.201-1.091-1.801-1.636 C638.091,44.521,637.857,44.704,637.622,44.887z M270.734,328.294c-0.776,0.42-1.442,1.044-2.616,1.974 c1.078,0.496,1.78,1.069,2.079,0.905c0.664-0.364,1.218-1.045,1.601-1.72C271.883,329.301,270.859,328.226,270.734,328.294z M545.873,101.17c0.001,0.435,0.701,1.135,1.182,1.218c0.374,0.065,0.881-0.64,1.61-1.23c-0.731-0.582-1.244-1.281-1.616-1.213 C546.567,100.033,545.872,100.735,545.873,101.17z M436.472,398.619c-0.506-0.787-1.011-1.575-1.517-2.362 c-0.335,0.218-0.669,0.436-1.004,0.654c0.071,0.438,0.026,1.177,0.234,1.258C434.899,398.444,435.703,398.488,436.472,398.619z M617.191,119.441c-0.487-0.073-0.986-0.246-1.459-0.193c-0.6,0.066-1.18,0.316-1.768,0.488c0.315,0.457,0.554,1.182,0.966,1.299 c0.44,0.125,1.043-0.323,1.575-0.521C616.733,120.156,616.962,119.799,617.191,119.441z M581.889,236.333 c0.767,0.72,1.534,1.44,2.3,2.16c0.328-0.411,0.656-0.823,0.985-1.234c-0.853-0.624-1.706-1.249-2.559-1.873 C582.373,235.701,582.131,236.017,581.889,236.333z M108.345,242.074c-0.358-0.005-0.715-0.011-1.073-0.016c0,1.05,0,2.1,0,3.15 c0.358,0.004,0.716,0.008,1.073,0.012C108.345,244.171,108.345,243.122,108.345,242.074z M652.357,58.354 c-0.055,0.417,0.327,0.892,0.514,1.341c0.29-0.144,0.58-0.288,0.869-0.431c0.146-0.574,0.444-1.165,0.381-1.714 c-0.036-0.315-0.658-0.563-1.015-0.842C652.84,57.254,652.433,57.782,652.357,58.354z M227.511,176.263 c-0.592-0.46-1.048-0.814-1.504-1.169c-0.288,0.377-0.881,0.854-0.798,1.112c0.166,0.517,0.704,0.915,1.087,1.362 C226.621,177.219,226.945,176.871,227.511,176.263z M403.636,307.136c0.475-0.147,1.334-0.252,1.355-0.448 c0.074-0.689-0.14-1.409-0.244-2.117c-0.599,0.632-1.199,1.263-1.798,1.895C403.179,306.69,403.407,306.913,403.636,307.136z M640.66,69.103c-0.227,0.563-0.589,1.118-0.622,1.692c-0.015,0.262,0.62,0.56,1.324,1.142c0.187-0.952,0.442-1.557,0.357-2.111 C641.676,69.538,641.033,69.341,640.66,69.103z M652.511,68.891c-0.18,0.421,0.167,1.067,0.416,2.255 c0.818-0.923,1.417-1.308,1.513-1.792c0.088-0.446-0.362-1-0.576-1.506C653.393,68.186,652.707,68.434,652.511,68.891z M239.471,386.11c-0.006-0.344-0.542-0.678-0.841-1.017c-0.389,0.416-1.039,0.801-1.092,1.256c-0.05,0.432,0.526,0.936,1.168,1.945 C239.127,387.174,239.481,386.639,239.471,386.11z M551.818,429.373c0.497-0.963,1.045-1.538,0.947-1.966 c-0.103-0.453-0.821-0.765-1.271-1.139c-0.323,0.473-0.885,0.94-0.897,1.42C550.587,428.113,551.19,428.553,551.818,429.373z M236.833,433.346c-0.089-0.036-0.939,1.173-0.813,1.343c0.446,0.603,1.107,1.162,1.803,1.412c0.303,0.109,0.89-0.57,1.789-1.2 C238.386,434.177,237.644,433.676,236.833,433.346z M455.03,293.038c0.296,0.112,0.898-0.582,1.794-1.215 c-1.237-0.748-2.012-1.217-2.788-1.687c-0.297,0.497-0.959,1.251-0.824,1.442C453.653,292.2,454.325,292.769,455.03,293.038z M301.662,434.315c-0.063-0.04-0.553,0.599-0.845,0.923c0.895,0.595,1.79,1.19,2.685,1.785c0.205-0.309,0.411-0.618,0.616-0.927 C303.309,435.486,302.515,434.853,301.662,434.315z M547.353,113.937c-0.416-0.031-0.863,0.361-1.297,0.568 c0.268,0.529,0.536,1.058,1.049,2.072c0.653-0.902,1.086-1.338,1.268-1.861C548.423,114.573,547.732,113.965,547.353,113.937z M601.035,309.339c0.1,0.429,0.406,0.809,0.631,1.209c0.362-0.238,0.725-0.475,1.296-0.849c-0.54-0.433-0.848-0.795-1.237-0.937 C601.572,308.705,601.001,309.195,601.035,309.339z M486.233,150.979c0.016-0.262-0.543-0.559-1.056-1.038 c-0.202,0.695-0.421,1.11-0.398,1.511c0.012,0.204,0.636,0.581,0.68,0.542C485.781,151.704,486.211,151.341,486.233,150.979z M641.01,152.285c-0.105-0.075-0.729,0.262-0.731,0.415c-0.005,0.416,0.195,0.836,0.314,1.254c0.398-0.128,0.795-0.255,1.453-0.466 C641.589,152.929,641.354,152.531,641.01,152.285z M574.378,291.427c0.69,0.195,1.379,0.39,2.069,0.585 c-0.457-0.566-0.914-1.132-1.372-1.699C574.843,290.684,574.61,291.055,574.378,291.427z M576.447,292.012 c0.043,0.053,0.085,0.106,0.128,0.158c0.033,0.022,0.066,0.043,0.099,0.065c0-0.053,0-0.106,0.001-0.159 C576.599,292.054,576.523,292.033,576.447,292.012z M225.373,150.332c-0.015,0.187,0.543,0.622,0.612,0.579 c0.342-0.215,0.81-0.531,0.842-0.851c0.029-0.288-0.449-0.627-0.886-1.172C225.662,149.548,225.405,149.931,225.373,150.332z M676.286,132.258c0.062,0.413,0.335,0.795,0.524,1.189c0.366-0.201,0.733-0.402,1.314-0.72c-0.498-0.456-0.781-0.821-1.153-0.999 C676.842,131.667,676.263,132.106,676.286,132.258z M523.739,410.66c-0.514-0.463-0.805-0.837-1.187-1.012 c-0.138-0.063-0.73,0.387-0.706,0.537c0.068,0.424,0.348,0.814,0.545,1.218C522.766,411.196,523.141,410.99,523.739,410.66z M226.018,137.897c-0.144-0.054-0.691,0.415-0.659,0.555c0.094,0.414,0.386,0.784,0.601,1.17c0.348-0.232,0.697-0.464,1.243-0.829 C226.689,138.383,226.392,138.037,226.018,137.897z M529.219,233.929c0.641,0.074,1.335-0.304,2.401-0.6 c-1.604-1.277-2.127-1.862-2.272-1.779c-0.504,0.285-1.1,0.751-1.214,1.25C528.065,233.101,528.791,233.88,529.219,233.929z M664.764,121.481c0.318-0.668,0.599-1.047,0.65-1.456c0.024-0.19-0.512-0.661-0.599-0.617c-0.367,0.185-0.88,0.489-0.917,0.8 C663.861,120.516,664.331,120.885,664.764,121.481z M450.972,198.869c0.35,0.156,0.701,0.312,1.051,0.468 c0.469-0.931,0.938-1.862,1.407-2.792c-0.418-0.221-0.836-0.442-1.255-0.663C451.774,196.877,451.373,197.873,450.972,198.869z M108.018,194.953c-0.295,0.469-0.746,0.916-0.82,1.417c-0.039,0.263,0.611,0.902,0.906,0.876c0.492-0.043,0.948-0.484,1.834-0.999 C109.006,195.619,108.512,195.286,108.018,194.953z M574.283,295.27c0.169,0.252,0.338,0.504,0.507,0.756 c0.525-0.55,1.049-1.101,1.574-1.651C575.67,294.674,574.977,294.972,574.283,295.27z M657.359,200.552 c-0.414-0.712-0.705-1.212-0.995-1.712c-0.398,0.239-1.138,0.495-1.127,0.712c0.028,0.527,0.344,1.083,0.687,1.514 C656.003,201.166,656.652,200.814,657.359,200.552z M226.146,201.756c0.339-0.636,0.623-0.99,0.694-1.383 c0.033-0.182-0.443-0.66-0.524-0.625c-0.359,0.155-0.882,0.418-0.919,0.698C225.355,200.764,225.769,201.142,226.146,201.756z M238.955,202.658c0.379-0.874,0.773-1.397,0.765-1.912c-0.005-0.294-0.666-0.577-1.031-0.865c-0.297,0.483-0.73,0.939-0.833,1.46 C237.804,201.599,238.362,201.977,238.955,202.658z M452.848,221.04c0.695-0.809,1.389-1.618,2.084-2.427 c-0.293-0.271-0.586-0.543-0.88-0.814c-0.745,0.705-1.489,1.41-2.234,2.114C452.161,220.289,452.505,220.665,452.848,221.04z M213.021,299.027c0.063,0.416,0.338,0.801,0.529,1.198c0.369-0.202,0.739-0.405,1.325-0.726c-0.505-0.462-0.789-0.83-1.163-1.006 C213.581,298.431,212.998,298.874,213.021,299.027z M238.474,297.445c-0.226-0.026-0.719,0.367-0.704,0.535 c0.038,0.414,0.3,0.808,0.471,1.21c0.374-0.187,0.747-0.374,2.075-1.039C239.365,297.765,238.931,297.497,238.474,297.445z M492.001,217.948c-0.523,0.098-0.985,0.528-1.472,0.82c0.286,0.367,0.564,1.027,0.859,1.035c0.517,0.014,1.045-0.373,1.927-0.742 C492.634,218.459,492.26,217.899,492.001,217.948z M467.83,218.092c-0.397-0.004-0.802,0.742-1.203,1.155 c0.333,0.316,0.649,0.867,1.002,0.893c0.519,0.038,1.065-0.301,2.214-0.683C468.816,218.718,468.326,218.096,467.83,218.092z M626.91,341.183c0.022,0.394,0.247,0.777,0.392,1.164c0.365-0.154,0.729-0.308,1.328-0.561c-0.457-0.488-0.706-0.852-1.049-1.062 C627.476,340.661,626.902,341.032,626.91,341.183z M108.194,218.619c-0.405,0.04-0.809,0.079-1.214,0.119 c0.066,1.255,0.132,2.51,0.198,3.765c0.339-0.006,0.677-0.012,1.016-0.018C108.194,221.196,108.194,219.907,108.194,218.619z M466.703,204.884c-0.393-0.053-1.307,0.722-1.251,0.956c0.148,0.625,0.695,1.156,1.083,1.724c0.441-0.36,0.883-0.719,1.528-1.245 C467.484,205.667,467.138,204.943,466.703,204.884z M540.277,205.496c-0.189,0-0.576,0.58-0.535,0.633 c0.249,0.32,0.584,0.751,0.916,0.773c0.267,0.018,0.57-0.487,1.06-0.953C541.058,205.723,540.667,205.496,540.277,205.496z M637.375,202.038c-1.982-0.975-2.578-1.517-3.057-1.428c-0.4,0.075-0.663,0.887-0.987,1.373c0.583,0.226,1.151,0.562,1.753,0.642 C635.528,202.684,636.016,202.407,637.375,202.038z M368.107,205.772c-0.259,0.335-0.716,0.668-0.72,1.006 c-0.004,0.314,0.477,0.633,0.894,1.127c0.325-0.557,0.738-0.949,0.69-1.273C368.924,206.31,368.414,206.056,368.107,205.772z M418.643,345.099c-0.221-0.048-0.906,0.744-0.839,0.875c0.318,0.619,0.799,1.167,1.3,1.661c0.046,0.045,0.644-0.47,2.027-1.503 C420.068,345.664,419.381,345.26,418.643,345.099z M454.061,168.665c-0.497,0.01-1.144,0.488-1.409,0.949 c-0.14,0.243,0.394,0.873,0.788,1.656c0.782-0.66,1.482-0.975,1.563-1.406C455.069,169.507,454.395,168.659,454.061,168.665z M227.204,323.195c-0.119-0.081-0.758,0.265-0.758,0.418c-0.002,0.425,0.206,0.851,0.331,1.277c0.414-0.131,0.827-0.263,1.513-0.48 C227.813,323.848,227.564,323.439,227.204,323.195z M226.039,386.731c0.346-0.271,0.814-0.635,0.837-0.993 c0.019-0.29-0.529-0.618-1.034-1.147c-0.243,0.713-0.489,1.137-0.489,1.561C225.354,386.356,225.982,386.775,226.039,386.731z M146.018,341.054c-0.097-0.062-0.611,0.534-1.163,1.036c0.507,0.553,0.903,0.985,1.3,1.417c0.417-0.398,0.834-0.796,1.251-1.194 C146.955,341.877,146.539,341.383,146.018,341.054z M505.788,230.871c-0.639-0.339-0.994-0.623-1.386-0.693 c-0.185-0.033-0.664,0.443-0.629,0.523c0.156,0.361,0.419,0.887,0.702,0.926C504.791,231.671,505.17,231.253,505.788,230.871z M639.995,181.122c-0.336,0.037-0.852,0.494-0.871,0.791c-0.02,0.321,0.397,0.87,0.714,0.947c0.263,0.064,0.658-0.413,1.738-1.174 C640.843,181.402,640.398,181.078,639.995,181.122z M448.457,225.355c-0.473-0.44-0.741-0.79-1.095-0.964 c-0.118-0.058-0.674,0.365-0.652,0.514c0.057,0.396,0.319,0.763,0.5,1.142C447.558,225.854,447.906,225.661,448.457,225.355z M405.64,342.075c-0.232-0.492-0.94-0.761-1.445-1.125c-0.216,0.431-0.663,0.906-0.592,1.284c0.099,0.526,0.585,0.98,1.315,2.086 C405.346,343.086,405.808,342.431,405.64,342.075z M211.436,225.562c0.051,0.521,0.499,1.002,0.959,1.813 c0.528-0.731,1.057-1.166,0.982-1.425c-0.145-0.499-0.632-0.897-0.977-1.338C212.056,224.931,211.409,225.28,211.436,225.562z M446.259,423.746c0.367-0.214,0.862-0.554,0.897-0.89c0.031-0.299-0.483-0.654-0.949-1.217c-0.299,0.689-0.573,1.089-0.608,1.509 C445.583,423.34,446.172,423.797,446.259,423.746z M548.421,423.112c-0.475-0.513-0.734-0.892-1.092-1.117 c-0.102-0.065-0.704,0.325-0.696,0.487c0.021,0.416,0.256,0.822,0.405,1.232C547.42,423.548,547.801,423.382,548.421,423.112z M473.137,174.945c-0.232-0.013-0.699,0.356-0.684,0.518c0.037,0.4,0.291,0.779,0.458,1.166c0.36-0.179,0.719-0.358,2.199-1.096 C474.047,175.197,473.597,174.971,473.137,174.945z M225.954,275.521c0.347-0.226,0.694-0.453,1.237-0.808 c-0.511-0.416-0.804-0.761-1.175-0.903c-0.14-0.054-0.685,0.411-0.654,0.552C225.453,274.772,225.743,275.138,225.954,275.521z M689.368,32.889c-0.23-0.014-0.696,0.354-0.681,0.514c0.037,0.399,0.289,0.777,0.455,1.164c0.359-0.179,0.719-0.358,2.181-1.087 C690.273,33.144,689.826,32.917,689.368,32.889z M498.079,273.846c-0.377,0.158-0.921,0.432-0.966,0.729 c-0.048,0.32,0.393,0.713,0.793,1.346c0.354-0.658,0.651-1.023,0.726-1.429C498.666,274.304,498.169,273.808,498.079,273.846z M452.341,260.469c1.258-1.391,2.517-2.783,3.934-4.349c-4.074-1.083-4.074-1.083-4.529,3.824c-0.571,0.902-1.143,1.804-1.714,2.707 c0.595,0.143,1.191,0.285,1.786,0.428C451.993,262.208,452.167,261.338,452.341,260.469z M355.055,329.467 c-0.016,0.181,0.541,0.616,0.625,0.568c0.348-0.202,0.82-0.524,0.852-0.841c0.029-0.286-0.456-0.624-0.896-1.16 C355.352,328.685,355.091,329.066,355.055,329.467z M652.585,22.188c0.516-0.073,0.978-0.53,1.836-1.058 c-0.905-0.648-1.406-1.007-1.908-1.366c-0.291,0.493-0.746,0.966-0.81,1.488C651.667,21.544,652.32,22.225,652.585,22.188z M662.897,22.389c-0.035,0.312,0.421,0.679,0.838,1.273c0.318-0.666,0.597-1.045,0.652-1.454c0.025-0.186-0.506-0.654-0.588-0.612 C663.439,21.782,662.932,22.083,662.897,22.389z M659.235,52.519c0.18,0.016,0.614-0.541,0.566-0.625 c-0.201-0.348-0.522-0.819-0.84-0.851c-0.285-0.029-0.623,0.455-1.158,0.895C658.453,52.221,658.834,52.483,659.235,52.519z M659.814,40.447c0.018-0.231-0.31-0.699-0.467-0.692c-0.391,0.017-0.773,0.243-1.16,0.385c0.156,0.371,0.313,0.742,0.99,2.345 C659.556,41.336,659.78,40.899,659.814,40.447z M582.998,39.384c0.247,0.361,0.623,0.633,0.963,0.945 c0.339-0.41,0.548-0.662,0.756-0.914c-0.378-0.253-0.734-0.568-1.15-0.717C583.463,38.661,582.947,39.31,582.998,39.384z M417.822,266.892c-0.125-0.073-0.635,0.515-1.206,1.002c0.531,0.568,0.938,1.002,1.344,1.436c0.419-0.398,0.838-0.796,1.257-1.194 C418.762,267.704,418.349,267.199,417.822,266.892z M416.731,328.935c-0.344,0.803-0.72,1.331-0.748,1.877 c-0.016,0.323,0.516,0.673,0.802,1.011c0.43-0.596,0.902-1.17,1.237-1.816C418.065,329.925,417.384,329.469,416.731,328.935z M471.332,363.461c-0.018,0.187,0.57,0.646,0.663,0.593c0.368-0.208,0.866-0.55,0.898-0.881c0.029-0.304-0.482-0.659-0.942-1.221 C471.65,362.634,471.373,363.036,471.332,363.461z M654.745,11.673c0.363,0.361,0.856,1.085,1.063,1.011 c0.502-0.18,0.872-0.732,1.447-1.278c-0.534-0.435-1.001-0.971-1.134-0.898C655.605,10.791,655.195,11.268,654.745,11.673z M553.4,441.62c-0.317-0.036-0.875-0.179-0.913-0.093c-0.333,0.757-0.573,1.555-0.841,2.341c0.444,0.112,0.887,0.224,1.331,0.336 C553.117,443.343,553.259,442.482,553.4,441.62z M226.773,88.436c-0.662,0.305-1.236,0.802-1.841,1.23 c0.404,0.235,0.81,0.662,1.212,0.659c0.521-0.004,1.04-0.35,1.921-0.687C227.378,88.983,226.918,88.369,226.773,88.436z M657.13,88.88c-0.01,0.49,0.353,0.988,0.611,1.593c0.802-0.394,1.229-0.605,1.656-0.815c-0.371-0.475-0.67-1.062-1.149-1.37 C658.058,88.166,657.135,88.657,657.13,88.88z M144.425,82.704c-0.066,0.086,0.553,0.992,0.856,0.992 c0.472-0.001,0.943-0.453,1.549-0.788c-0.496-0.672-0.77-1.043-1.044-1.415C145.314,81.883,144.785,82.23,144.425,82.704z M276.278,400.417c0.108,0.04,0.622-0.586,0.578-0.65c-0.244-0.353-0.602-0.627-0.929-0.935c-0.338,0.389-0.546,0.629-0.754,0.868 C275.537,399.953,275.876,400.27,276.278,400.417z M227.908,398.364c0.086-0.316-0.277-0.754-0.531-1.339 c-0.482,0.416-1.014,0.662-1.043,0.958c-0.034,0.339,0.379,0.721,0.598,1.085C227.276,398.839,227.826,398.665,227.908,398.364z M269.842,243.428c0.121-0.455-0.37-1.072-0.817-2.168c-0.706,0.874-1.347,1.316-1.359,1.775c-0.013,0.504,0.553,1.023,0.867,1.535 C268.994,244.196,269.718,243.892,269.842,243.428z M143.341,107.649c0.799,0.605,1.599,1.209,2.398,1.814 c0.228-0.533,0.753-1.445,0.635-1.538c-0.705-0.555-1.559-0.92-2.363-1.349C143.788,106.933,143.565,107.291,143.341,107.649z M280.899,429.572c0.461-0.298,1.242-0.54,1.305-0.906c0.084-0.488-0.39-1.072-0.737-1.877c-0.647,0.529-1.298,0.844-1.27,1.08 C280.266,428.457,280.644,429.007,280.899,429.572z M466.446,354.798c0.025,0.27,0.614,0.488,0.948,0.729 c0.281-0.484,0.715-0.949,0.778-1.46c0.031-0.251-0.626-0.587-1.287-1.157C466.67,353.734,466.398,354.281,466.446,354.798z M201.129,101.606c0.019-0.286-0.523-0.61-1.023-1.133c-0.241,0.709-0.483,1.126-0.481,1.542c0.001,0.203,0.621,0.617,0.677,0.573 C200.644,102.32,201.105,101.961,201.129,101.606z M627.428,244.636c0.363-0.224,0.856-0.562,0.889-0.9 c0.03-0.305-0.476-0.662-0.937-1.234c-0.299,0.699-0.573,1.104-0.607,1.527C626.758,244.224,627.35,244.684,627.428,244.636z M491.552,281.456c0.25-0.514,0.625-1.013,0.694-1.551c0.033-0.258-0.514-0.591-1.13-1.238c-0.327,0.933-0.681,1.479-0.634,1.987 C490.508,280.952,491.174,281.191,491.552,281.456z M460.83,372.788c-0.301-0.511-0.793-0.91-1.215-1.35 c-0.409,0.402-0.819,0.804-1.228,1.206c0.428,0.401,0.856,0.803,1.405,1.319C460.292,373.411,460.897,372.902,460.83,372.788z M548.432,77.117c-0.501-0.468-0.786-0.838-1.162-1.025c-0.122-0.061-0.713,0.39-0.69,0.55c0.06,0.425,0.338,0.819,0.53,1.226 C547.48,77.658,547.85,77.447,548.432,77.117z M356.893,279.952c-0.116-0.079-0.741,0.257-0.742,0.407 c-0.003,0.417,0.199,0.836,0.32,1.254c0.402-0.128,0.804-0.255,1.474-0.468C357.481,280.591,357.242,280.191,356.893,279.952z M588.841,280.247c-0.314,0.04-0.858,0.835-0.763,1.028c0.239,0.484,0.743,1.045,1.219,1.129c0.296,0.052,0.735-0.709,1.474-1.488 C589.826,280.558,589.306,280.188,588.841,280.247z M652.14,220.037c0.12,0.066,0.615-0.544,1.096-0.991 c-0.466-0.373-0.806-0.858-1.111-0.837c-0.38,0.026-0.732,0.47-1.095,0.733C651.39,219.326,651.703,219.795,652.14,220.037z M405.194,293.153c-0.291-0.365-0.582-0.731-0.966-1.213c-0.429,0.338-0.756,0.595-1.083,0.852c0.343,0.323,0.64,0.788,1.044,0.915 C404.441,293.786,404.853,293.355,405.194,293.153z M578.205,266.548c-0.233,0.572-0.587,1.133-0.644,1.722 c-0.025,0.254,0.563,0.567,1.148,1.109c0.416-0.827,0.96-1.414,0.869-1.878C579.502,267.109,578.692,266.86,578.205,266.548z M437.895,329.231c0.44-0.45,1.007-0.839,1.265-1.376c0.119-0.248-0.366-0.785-0.711-1.449c-0.9,0.816-1.335,1.209-1.77,1.603 C437.085,328.416,437.49,328.823,437.895,329.231z M261.566,447.066c0.138,0.141,0.745-0.177,1.59-0.409 c-0.635-0.75-0.958-1.299-1.436-1.614c-0.182-0.12-0.717,0.297-1.092,0.47C260.928,446.044,261.155,446.645,261.566,447.066z M559.423,224.246c-0.391,0.385-0.781,0.771-1.172,1.156c0.367,0.262,0.734,0.523,1.24,0.884c0.353-0.416,0.891-0.799,0.834-1.04 C560.234,224.862,559.744,224.574,559.423,224.246z M267.593,218.752c0.333,0.463,0.613,0.988,1.036,1.344 c0.101,0.084,0.678-0.398,1.188-0.713c-0.437-0.486-0.689-1.005-1.05-1.098C268.437,218.2,267.989,218.578,267.593,218.752z M152.161,335.526c-0.069-0.382-0.545-0.69-0.847-1.03c-0.363,0.393-0.727,0.786-1.09,1.179c0.346,0.287,0.692,0.575,1.198,0.995 C151.746,336.199,152.213,335.816,152.161,335.526z M237.867,397.972c0.075,0.062,0.637-0.473,1.238-0.935 c-0.654-0.582-1.104-0.982-1.553-1.382c-0.28,0.331-0.859,0.78-0.784,0.969C236.976,397.146,237.419,397.607,237.867,397.972z M548.237,410.524c-0.457-0.37-0.8-0.862-1.1-0.837c-0.382,0.031-0.729,0.48-1.091,0.749c0.357,0.382,0.714,0.765,1.071,1.147 C547.439,411.28,547.76,410.976,548.237,410.524z M488.227,457.739c-1.972,0.735-2.794,1.041-3.615,1.347 c0.094,0.331,0.187,0.662,0.28,0.993c0.579-0.065,1.227,0.007,1.718-0.236C487.016,459.642,487.237,459.069,488.227,457.739z M165.534,423.029c-0.07-0.38-0.536-0.687-0.832-1.025c-0.354,0.387-0.708,0.773-1.062,1.16c0.338,0.288,0.676,0.576,1.175,1.002 C165.133,423.695,165.587,423.315,165.534,423.029z M479.977,281.131c-0.085-0.513-0.505-0.97-1.008-1.838 c-0.468,0.831-0.916,1.305-0.816,1.509c0.259,0.526,0.76,0.932,1.164,1.386C479.556,281.832,480.028,281.438,479.977,281.131z M432.35,262.237c0.285,0.354,0.515,0.898,0.874,1.005c0.3,0.089,0.751-0.333,1.846-0.891c-0.819-0.434-1.248-0.827-1.684-0.837 C433.046,261.507,432.696,261.978,432.35,262.237z M575.693,327.457c-0.037-0.39-0.291-0.759-0.457-1.137 c-0.355,0.184-0.711,0.368-1.826,0.944c0.813,0.379,1.206,0.653,1.631,0.719C575.24,328.014,575.709,327.623,575.693,327.457z M466.508,370.297c-0.323-0.354-0.647-0.709-0.97-1.064c-0.791,0.631-1.581,1.262-2.372,1.893c0.331,0.393,0.662,0.786,0.993,1.179 C464.941,371.636,465.725,370.966,466.508,370.297z M512.146,299.553c-0.394-0.484-0.613-1.003-0.952-1.098 c-0.336-0.095-0.791,0.238-1.194,0.383c0.298,0.469,0.541,0.996,0.933,1.364C511.026,300.289,511.62,299.843,512.146,299.553z M163.482,273.78c-0.287,0.332-0.824,0.688-0.797,0.992c0.032,0.355,0.557,0.667,1.046,1.187c0.345-0.534,0.828-0.971,0.745-1.224 C164.35,274.349,163.833,274.091,163.482,273.78z M651.686,9.938c-0.061,0.254,0.508,0.935,0.777,0.925 c0.384-0.015,0.75-0.487,1.347-0.928c-0.49-0.388-0.858-0.895-1.141-0.851C652.285,9.142,651.772,9.576,651.686,9.938z M728.032,8.13c0.079-0.286-0.368-0.716-0.683-1.259c-0.501,0.539-0.987,0.84-1.066,1.226c-0.051,0.245,0.544,0.9,0.771,0.865 C727.432,8.904,727.933,8.491,728.032,8.13z M669.153,3.188c-0.072,0.301,0.651,1.097,1.073,1.142 c0.628,0.067,1.306-0.334,2.335-0.65c-0.578-0.466-0.975-0.809-1.296-1.088c-0.633,0.087-1.263,0.182-1.894,0.273 C669.299,2.974,669.181,3.073,669.153,3.188z M620.633,138.169c-0.282,0.095-0.564,0.191-0.846,0.286 c0.25,0.758,0.49,1.519,0.786,2.258c0.012,0.028,0.559-0.158,0.857-0.244C621.164,139.703,620.898,138.937,620.633,138.169z M484.307,126.981c0.414,0.114,0.9,0.415,1.221,0.291c0.337-0.131,0.515-0.67,0.868-1.185c-0.544-0.23-1.164-0.626-1.273-0.515 C484.753,125.945,484.565,126.498,484.307,126.981z M108.214,120.702c0.205-0.35,0.635-0.759,0.562-1.036 c-0.112-0.425-0.57-0.758-1.058-1.343c-0.257,0.621-0.638,1.094-0.53,1.388C107.335,120.113,107.854,120.378,108.214,120.702z M553.61,180.435c-0.271,0.502-0.703,0.991-0.75,1.513c-0.026,0.291,0.65,0.946,0.905,0.896c0.513-0.099,0.955-0.568,1.794-1.132 C554.636,181.108,554.123,180.772,553.61,180.435z M534.442,150.351c-0.355,0.101-0.597,0.604-1.01,1.071 c0.5,0.304,1.079,0.773,1.171,0.692c0.404-0.358,0.668-0.874,0.982-1.334C535.199,150.62,534.757,150.262,534.442,150.351z M665.416,70.656c0.028-0.18-0.461-0.64-0.541-0.602c-0.352,0.166-0.852,0.438-0.892,0.728c-0.042,0.301,0.383,0.668,0.773,1.268 C665.082,71.402,665.355,71.045,665.416,70.656z M522.436,214.11c0.335-0.546,0.761-0.937,0.731-1.289 c-0.024-0.274-0.714-0.767-0.934-0.686c-0.373,0.137-0.767,0.62-0.839,1.014C521.354,213.362,521.963,213.694,522.436,214.11z M669.223,63.842c0.314,0.315,0.586,0.805,0.953,0.891c0.299,0.07,0.711-0.344,1.202-0.614c-0.4-0.536-0.671-0.898-0.941-1.261 C670.032,63.186,669.628,63.514,669.223,63.842z M639.277,83.039c0.279,0.328,0.567,0.927,0.834,0.918 c0.381-0.013,0.747-0.472,1.346-0.904c-0.493-0.381-0.855-0.871-1.141-0.83C639.939,82.278,639.621,82.748,639.277,83.039z M600.603,118.387c0.387,0.222,0.761,0.59,1.165,0.625c0.423,0.037,0.873-0.247,1.573-0.476c-1.116-0.882-1.461-1.155-1.807-1.428 C601.224,117.535,600.913,117.961,600.603,118.387z M153.789,398.306c-0.551-0.488-0.817-0.847-1.169-0.987 c-0.193-0.076-0.532,0.217-0.805,0.343c0.187,0.39,0.285,0.91,0.593,1.122C152.594,398.911,153.109,398.559,153.789,398.306z M236.871,410.43c0.115,0.251,0.182,0.687,0.392,0.772c0.202,0.082,0.551-0.199,0.835-0.32c-0.206-0.365-0.412-0.73-0.618-1.095 C237.28,409.998,237.08,410.21,236.871,410.43z M499.086,448.425c-1.387-0.448-1.903-0.791-2.17-0.653 c-0.278,0.143-0.357,0.747-0.416,1.164c-0.011,0.077,0.516,0.362,0.743,0.313C497.683,449.153,498.086,448.889,499.086,448.425z M467.062,453.591c0.08-0.156-0.272-0.745-0.34-0.731c-0.42,0.091-0.991,0.197-1.163,0.497c-0.139,0.244,0.212,0.768,0.438,1.441 C466.495,454.26,466.867,453.971,467.062,453.591z M517,452.904c-0.508-0.229-1.071-0.521-1.666-0.711 c-0.09-0.028-0.524,0.533-0.47,0.623c0.293,0.487,0.69,0.91,1.052,1.356C516.087,453.971,516.259,453.77,517,452.904z M262.576,475.242c0.369-0.043,0.925-0.44,0.969-0.742c0.044-0.302-0.4-0.898-0.715-0.966c-0.319-0.069-0.743,0.352-2.261,1.18 C261.644,475.02,262.129,475.295,262.576,475.242z M492.368,478.319c0.423,0.041,0.883-0.29,1.816-0.645 c-1.314-0.743-1.746-1.181-2.051-1.107c-0.331,0.081-0.782,0.671-0.742,0.983C491.43,477.859,491.998,478.283,492.368,478.319z M238.539,447.478c0.075-0.143-0.266-0.711-0.345-0.696c-0.409,0.076-0.948,0.18-1.135,0.471c-0.133,0.207,0.219,0.727,0.446,1.362 C237.991,448.106,238.349,447.837,238.539,447.478z M213.366,435.367c0.334,0.249,0.673,0.699,1,0.689 c0.308-0.009,0.602-0.501,1.092-0.958c-0.599-0.323-1.008-0.725-1.312-0.657C213.832,434.512,213.621,435.04,213.366,435.367z M479.859,440.435c-0.207,0.357-0.505,0.698-0.574,1.08c-0.027,0.153,0.486,0.592,0.692,0.556c0.359-0.063,0.672-0.394,1.284-0.797 C480.595,440.875,480.227,440.655,479.859,440.435z M681.738,79.499c0.254,0.001,0.508,0.003,0.761,0.004c0-0.989,0-1.977,0-2.966 c-0.254-0.001-0.507-0.002-0.761-0.004C681.738,77.522,681.738,78.511,681.738,79.499z M670.402,76.065 c-0.249-0.002-0.585,0.512-0.716,0.859c-0.05,0.133,0.367,0.631,0.563,0.626c0.356-0.008,0.705-0.269,1.368-0.56 C671.031,76.515,670.719,76.068,670.402,76.065z M658.043,77.381c0.283,0.149,0.609,0.468,0.839,0.409 c0.376-0.096,0.688-0.438,1.026-0.677c-0.222-0.301-0.444-0.602-0.742-1.006C658.677,76.662,658.36,77.021,658.043,77.381z M41.228,78.313c0-0.86,0-1.72,0-2.579c-0.338-0.002-0.675-0.004-1.012-0.006c0.105,0.879,0.209,1.758,0.314,2.637 C40.763,78.347,40.996,78.33,41.228,78.313z M559.407,86.888c0.319-0.227,0.638-0.453,0.957-0.68c-0.18-0.225-0.36-0.45-0.54-0.675 c-0.239,0.157-0.63,0.28-0.675,0.48C559.09,86.272,559.308,86.593,559.407,86.888z M540.682,82.599 c-0.203-0.02-0.662,0.414-0.629,0.56c0.076,0.344,0.371,0.886,0.591,0.893c0.332,0.01,0.675-0.368,1.321-0.775 C541.342,82.927,541.025,82.634,540.682,82.599z M107.532,83.729c0.361-0.233,0.722-0.466,1.178-0.761 c-0.317-0.56-0.542-0.957-0.768-1.354c-0.32,0.284-0.859,0.537-0.905,0.859C106.984,82.861,107.349,83.308,107.532,83.729z M560.283,50.868c0.012-0.094-0.473-0.254-0.877-0.459c-0.1,0.431-0.263,0.822-0.239,1.201c0.009,0.14,0.464,0.25,0.715,0.373 C560.029,51.613,560.232,51.25,560.283,50.868z M726.837,46.943c0.313,0.074,0.74-0.335,2.015-1.002 c-0.912-0.373-1.35-0.705-1.761-0.674c-0.366,0.028-0.701,0.459-1.049,0.712C726.302,46.32,726.514,46.866,726.837,46.943z M698.87,61.531c0.439-0.638,0.685-0.996,0.932-1.354c-0.358-0.197-0.701-0.462-1.085-0.55c-0.119-0.027-0.516,0.446-0.49,0.653 C698.271,60.628,698.552,60.947,698.87,61.531z M144.094,58.49c0.468,0.384,0.78,0.843,1.098,0.846 c0.34,0.004,0.686-0.421,1.029-0.658c-0.359-0.38-0.68-0.822-1.108-1.093C145.021,57.528,144.539,58.086,144.094,58.49z M597.427,114.135c-0.243-0.055-0.544,0.144-0.819,0.233c0.213,0.297,0.426,0.593,0.638,0.89c0.211-0.166,0.423-0.332,0.635-0.5 C597.732,114.538,597.616,114.178,597.427,114.135z M683.464,114.184c0.076-0.316-0.355-0.754-1.07-2.073 c-0.368,0.936-0.702,1.391-0.666,1.814c0.032,0.375,0.475,0.714,0.737,1.069C682.818,114.728,683.384,114.514,683.464,114.184z M585.128,113.231c-0.407,0.078-0.949,0.182-1.131,0.472c-0.133,0.212,0.221,0.727,0.45,1.364c0.482-0.509,0.841-0.778,1.025-1.136 C585.547,113.785,585.205,113.217,585.128,113.231z M550.659,120.152c0.144,0.266,0.232,0.669,0.445,0.753 c0.188,0.074,0.517-0.206,0.783-0.33c-0.205-0.345-0.41-0.689-0.614-1.034C551.067,119.744,550.862,119.947,550.659,120.152z M84.093,95.581c0.504-0.534,0.875-0.813,1.065-1.184c0.079-0.155-0.278-0.746-0.35-0.731c-0.42,0.088-0.972,0.198-1.163,0.5 C83.507,94.384,83.862,94.913,84.093,95.581z M682.565,101.895c0.255-0.134,0.509-0.268,0.765-0.402 c-0.119-0.254-0.181-0.643-0.374-0.725c-0.221-0.094-0.558,0.084-0.845,0.144C682.262,101.239,682.413,101.567,682.565,101.895z M108.378,45.256c-0.369,0.029-0.706,0.466-1.057,0.723c0.262,0.346,0.475,0.901,0.801,0.978c0.316,0.075,0.748-0.342,2.045-1.024 C109.24,45.558,108.795,45.224,108.378,45.256z M696.179,39.316c-0.187-0.058-0.734,0.33-0.718,0.471 c0.043,0.383,0.301,0.741,0.473,1.109c0.369-0.184,0.737-0.367,1.371-0.684C696.786,39.775,696.521,39.422,696.179,39.316z M602.275,34.137c-0.201,0.164-0.402,0.328-0.603,0.493c0.163,0.249,0.277,0.614,0.504,0.71c0.205,0.087,0.535-0.122,0.809-0.2 C602.749,34.805,602.512,34.471,602.275,34.137z M726.293,21.258c0.165,0.237,0.284,0.58,0.509,0.677 c0.195,0.084,0.511-0.111,0.773-0.183c-0.231-0.324-0.462-0.648-0.694-0.971C726.689,20.937,726.497,21.093,726.293,21.258z M701.891,20.688c-0.239,0.156-0.63,0.278-0.676,0.478c-0.058,0.256,0.161,0.577,0.261,0.87c0.32-0.226,0.639-0.451,0.958-0.677 C702.254,21.135,702.073,20.912,701.891,20.688z M659.925,16.766c-0.066-0.423-0.455-0.796-1.07-1.771 c-0.2,1.206-0.413,1.646-0.286,1.935c0.171,0.388,0.606,0.66,0.927,0.982C659.654,17.528,659.98,17.117,659.925,16.766z M16.056,15.027c-0.012-0.176-0.603-0.514-0.739-0.438c-0.333,0.187-0.553,0.573-0.966,1.049c0.615,0.248,1.011,0.407,1.406,0.567 C15.871,15.812,16.082,15.411,16.056,15.027z M521.822,224.568c0.643,0.246,1.039,0.398,1.436,0.551 c0.119-0.383,0.334-0.771,0.315-1.147c-0.008-0.164-0.587-0.494-0.744-0.417C522.492,223.72,522.261,224.1,521.822,224.568z M448.014,163.068c-0.136,0.201,0.227,0.74,0.694,2.033c0.463-0.955,0.735-1.353,0.834-1.791c0.047-0.209-0.271-0.718-0.361-0.703 C448.763,162.674,448.213,162.774,448.014,163.068z M412.778,319.492c-0.245,0-0.49-0.001-0.735-0.001c0,0.977,0,1.954,0,2.931 c0.245,0,0.49,0.001,0.735,0.001C412.778,321.446,412.778,320.469,412.778,319.492z M565.486,169.497 c0.438-0.051,0.856-0.272,2.114-0.715c-1.697-0.563-2.229-0.9-2.411-0.765c-0.294,0.219-0.394,0.74-0.478,1.154 C564.699,169.234,565.231,169.527,565.486,169.497z M429.413,219.423c-0.225,0.148-0.638,0.303-0.632,0.443 c0.011,0.274,0.254,0.538,0.401,0.807c0.291-0.215,0.581-0.429,0.872-0.643C429.841,219.827,429.628,219.625,429.413,219.423z M410.717,238.144c0.372-0.031,0.725-0.288,1.086-0.454c-0.185-0.368-0.37-0.735-0.69-1.371c-0.425,0.513-0.775,0.776-0.869,1.111 C410.19,237.622,410.567,238.157,410.717,238.144z M579.116,306.332c-0.334-0.571-0.565-0.968-0.797-1.365 c-0.338,0.286-0.904,0.537-0.955,0.867c-0.057,0.375,0.344,0.822,0.546,1.237C578.277,306.846,578.644,306.621,579.116,306.332z M656.381,153.337c0.099-0.178-0.08-0.508-0.135-0.772c-0.334,0.195-0.669,0.391-1.004,0.586c0.134,0.215,0.269,0.43,0.41,0.658 C655.907,153.657,656.257,153.56,656.381,153.337z M237.907,236.295c0.24,0.325,0.481,0.651,0.722,0.977 c0.186-0.223,0.371-0.447,0.557-0.671c-0.165-0.245-0.296-0.643-0.506-0.69C238.462,235.861,238.167,236.152,237.907,236.295z M476.394,227.97c-0.369-0.201-0.722-0.474-1.116-0.562c-0.127-0.028-0.539,0.455-0.51,0.659c0.052,0.359,0.344,0.683,0.68,1.276 C475.892,228.699,476.143,228.335,476.394,227.97z M292.655,316.286c-0.206-0.085-0.532,0.119-0.805,0.196 c0.237,0.331,0.474,0.661,0.711,0.992c0.198-0.162,0.395-0.324,0.593-0.488C292.992,316.74,292.879,316.378,292.655,316.286z M478.19,231.351c-0.051,0.14,0.379,0.653,0.585,0.65c0.365-0.005,0.727-0.274,1.412-0.574c-0.608-0.496-0.928-0.955-1.261-0.965 C478.675,230.455,478.322,230.992,478.19,231.351z M466.65,230.526c-0.374,0.039-0.945,0.449-0.99,0.758 c-0.045,0.31,0.399,0.907,0.729,0.994c0.305,0.08,0.743-0.352,2.198-1.145C467.562,230.787,467.087,230.48,466.65,230.526z M418.222,354.81c0.258,0.338,0.469,0.879,0.788,0.955c0.312,0.073,0.735-0.331,1.355-0.652c-0.497-0.473-0.792-0.979-1.107-0.992 C418.922,354.107,418.568,354.56,418.222,354.81z M269.704,183.736c0.408-0.939,0.726-1.356,0.724-1.771 c-0.002-0.316-0.411-0.631-0.638-0.946c-0.327,0.244-0.829,0.432-0.93,0.747C268.771,182.044,269.13,182.465,269.704,183.736z M405.184,354.741c-0.014-0.174-0.582-0.502-0.729-0.427c-0.328,0.166-0.55,0.543-0.968,1.002c0.62,0.245,1.013,0.401,1.406,0.557 C405.004,355.495,405.214,355.108,405.184,354.741z M486.388,335.776c-0.22-0.093-0.579,0.146-0.878,0.24 c0.127,0.363,0.254,0.727,0.381,1.09c0.268-0.166,0.536-0.332,0.805-0.499C486.6,336.315,486.574,335.855,486.388,335.776z M497.776,335.77c-0.366,0.166-0.764,0.29-1.074,0.529c-0.072,0.056,0.18,0.732,0.238,0.726c0.389-0.044,0.766-0.196,1.153-0.315 C497.955,336.302,497.865,336.036,497.776,335.77z M523.219,336.402c0.054-0.078-0.334-0.59-0.358-0.578 c-0.412,0.207-0.8,0.463-1.262,0.753c0.386,0.198,0.667,0.465,0.875,0.417C522.761,336.929,523.041,336.659,523.219,336.402z M602.949,195.105c0.139-0.377,0.323-0.747,0.378-1.135c0.011-0.079-0.468-0.226-0.875-0.413c-0.099,0.418-0.267,0.807-0.24,1.181 C602.223,194.877,602.69,194.984,602.949,195.105z M429.963,193.634c-0.116,0.412-0.301,0.824-0.306,1.238 c-0.002,0.126,0.499,0.377,0.755,0.36c0.422-0.029,0.831-0.23,1.826-0.538C430.751,194.001,430.357,193.817,429.963,193.634z M417.682,194.223c0.079-0.157-0.272-0.74-0.343-0.725c-0.414,0.087-0.967,0.194-1.146,0.492c-0.135,0.225,0.219,0.743,0.451,1.401 C417.132,194.867,417.498,194.591,417.682,194.223z M294.253,193.616c-0.327,0.224-0.712,0.401-0.949,0.697 c-0.08,0.1,0.258,0.738,0.335,0.725c0.363-0.063,0.702-0.266,1.065-0.426C294.498,194.156,294.375,193.886,294.253,193.616z M226.538,188.784c0.134,0.049,0.623-0.359,0.619-0.552c-0.007-0.349-0.264-0.693-0.55-1.341c-0.47,0.575-0.906,0.878-0.916,1.195 C225.684,188.323,226.196,188.659,226.538,188.784z M275.871,187.547c-0.146-0.078-0.722,0.268-0.708,0.334 c0.09,0.413,0.193,0.959,0.49,1.145c0.217,0.136,0.738-0.211,1.38-0.431C276.517,188.107,276.239,187.742,275.871,187.547z M496.46,212.541c-0.133,0.192,0.223,0.72,0.687,2.004c0.453-0.95,0.719-1.341,0.811-1.769c0.045-0.211-0.27-0.716-0.354-0.701 C497.192,212.147,496.661,212.251,496.46,212.541z M539.34,170.789c-0.22-0.045-0.758,0.331-0.738,0.449 c0.07,0.415,0.318,0.8,0.499,1.196c0.385-0.229,0.77-0.457,1.459-0.866C539.994,171.185,539.693,170.861,539.34,170.789z M448.411,173.71c0.084,0.345,0.372,0.885,0.595,0.894c0.328,0.012,0.67-0.371,1.308-0.778c-0.624-0.345-0.939-0.631-1.279-0.665 C448.833,173.141,448.378,173.572,448.411,173.71z M458.364,329.06c0.247,0.33,0.447,0.862,0.753,0.933 c0.299,0.069,0.708-0.332,2.224-1.151c-1.074-0.283-1.543-0.535-1.972-0.48C459.01,328.408,458.697,328.814,458.364,329.06z M626.706,168.812c-0.112,0.396-0.279,0.766-0.284,1.139c-0.001,0.103,0.667,0.353,0.712,0.294c0.236-0.309,0.37-0.694,0.54-1.053 C627.404,169.087,627.135,168.981,626.706,168.812z M391.17,328.398c0.114,0.49,0.504,0.915,0.784,1.367 c0.292-0.31,0.583-0.62,0.936-0.994c-0.321-0.442-0.576-0.793-0.832-1.144C391.744,327.888,391.129,328.219,391.17,328.398z M490.52,205.357c0.146,0.288,0.225,0.688,0.459,0.827c0.174,0.103,0.549-0.131,0.834-0.216c-0.145-0.289-0.225-0.689-0.458-0.827 C491.179,205.038,490.805,205.273,490.52,205.357z M295.969,178.18c0.22,0.306,0.44,0.613,0.661,0.918 c0.218-0.172,0.436-0.344,0.654-0.516c-0.153-0.228-0.274-0.6-0.469-0.644C296.564,177.88,296.253,178.087,295.969,178.18z M661.428,178.349c0.201,0.407,0.31,0.951,0.636,1.171c0.197,0.133,0.733-0.237,1.454-0.507c-0.589-0.51-0.866-0.883-1.231-1.017 C662.073,177.917,661.72,178.219,661.428,178.349z M528.308,181.83c0.421,0.035,0.872-0.3,1.78-0.661 c-1.279-0.715-1.709-1.149-2.021-1.076c-0.324,0.075-0.765,0.667-0.727,0.982C527.376,181.377,527.945,181.8,528.308,181.83z M566.224,354.93c-0.336-0.192-0.659-0.477-1.016-0.531c-0.157-0.024-0.574,0.458-0.539,0.651c0.06,0.338,0.378,0.629,0.763,1.2 C565.807,355.625,566.016,355.278,566.224,354.93z M516.797,356.323c0.351-0.623,0.645-0.94,0.681-1.283 c0.021-0.203-0.415-0.664-0.563-0.632c-0.345,0.074-0.892,0.372-0.897,0.59C516.01,355.333,516.389,355.677,516.797,356.323z M114.335,359.696c0.011-0.076-0.468-0.225-0.877-0.41c-0.07,0.295-0.123,0.559-0.169,0.827c0.029,0.155,0.06,0.309,0.089,0.464 c0.156,0.088,0.391,0.17,0.574,0.256C114.093,360.456,114.277,360.086,114.335,359.696z M589.372,206.541 c0.29,0.114,0.58,0.228,0.872,0.341c0.139-0.276,0.276-0.551,0.413-0.826c-0.3-0.105-0.632-0.335-0.89-0.271 C589.584,205.831,589.5,206.275,589.372,206.541z M254.608,357.659c0.192,0.075,0.523-0.208,0.794-0.333 c-0.206-0.346-0.413-0.693-0.619-1.039c-0.2,0.213-0.4,0.425-0.609,0.647C254.301,357.168,254.391,357.574,254.608,357.659z M555.204,262.919c-0.61-0.247-1.002-0.406-1.394-0.566c-0.108,0.384-0.32,0.779-0.282,1.149c0.019,0.187,0.597,0.527,0.729,0.453 C554.584,263.773,554.799,263.391,555.204,262.919z M282.485,293.046c-0.643-0.369-1.02-0.758-1.329-0.709 c-0.248,0.039-0.491,0.59-0.571,0.95c-0.028,0.127,0.462,0.544,0.66,0.509C281.589,293.736,281.889,293.428,282.485,293.046z M564.348,292.358c-0.358,0.026-0.686,0.453-1.028,0.703c0.253,0.34,0.459,0.888,0.774,0.961c0.312,0.072,0.734-0.336,1.992-1 C565.19,292.657,564.756,292.329,564.348,292.358z M576.674,292.235c-0.003,0.63-0.006,1.26-0.008,1.889 c0.633-0.215,1.267-0.43,1.9-0.644C577.935,293.065,577.304,292.65,576.674,292.235z M576.666,294.124 c-0.03,0.01-0.06,0.02-0.09,0.031l0,0c-0.07,0.074-0.141,0.147-0.211,0.221c0.1-0.043,0.201-0.086,0.301-0.129 C576.665,294.206,576.665,294.165,576.666,294.124z M461.455,385.683c-0.601-0.326-1.011-0.732-1.321-0.666 c-0.311,0.066-0.522,0.602-0.777,0.933c0.333,0.251,0.674,0.706,0.997,0.694C460.668,386.632,460.963,386.14,461.455,385.683z M467.623,133.415c0.044,0.354,0.332,0.678,0.665,1.282c0.438-0.657,0.681-1.022,0.925-1.387c-0.362-0.204-0.706-0.475-1.094-0.57 C468.003,132.712,467.596,133.201,467.623,133.415z M205.874,290.902c0.037-0.408-0.251-0.845-0.708-2.154 c-0.554,1.742-0.779,2.117-0.743,2.464c0.021,0.201,0.559,0.56,0.693,0.495C205.438,291.551,205.847,291.203,205.874,290.902z M476.207,135.51c-0.134-0.231-0.502-0.325-0.772-0.478c-0.084,0.264-0.308,0.612-0.214,0.773c0.135,0.231,0.503,0.325,0.772,0.478 C476.076,136.019,476.301,135.672,476.207,135.51z M376.817,292.005c0.341,0.004,0.688-0.427,1.033-0.668 c-0.361-0.384-0.683-0.827-1.113-1.103c-0.089-0.057-0.576,0.506-1.021,0.912C376.184,291.535,376.498,292.001,376.817,292.005z M145.742,144.043c-0.069,0.094,0.255,0.475,0.398,0.724c0.369-0.217,0.739-0.434,1.087-0.638c-0.211-0.488-0.336-0.777-0.461-1.066 C146.414,143.381,146.017,143.667,145.742,144.043z M492.789,293.172c-0.545,0.465-0.966,0.721-1.221,1.092 c-0.1,0.146,0.187,0.795,0.266,0.789c0.439-0.034,1.088-0.075,1.243-0.35C493.242,294.407,492.939,293.849,492.789,293.172z M108.42,144.833c0.116-0.384,0.322-0.772,0.303-1.15c-0.008-0.162-0.581-0.487-0.728-0.411c-0.329,0.171-0.552,0.546-0.972,1.006 C107.639,144.523,108.029,144.678,108.42,144.833z M553.601,145.504c0.231-0.388,0.461-0.776,0.787-1.324 c-0.444-0.301-0.795-0.539-1.146-0.777c-0.2,0.406-0.594,0.838-0.542,1.208C552.746,144.944,553.281,145.209,553.601,145.504z M145.401,380.111c0,0.156,0.549,0.5,0.708,0.431c0.324-0.139,0.771-0.502,0.769-0.769c-0.004-0.43-0.331-0.856-0.802-1.91 C145.612,379.316,145.401,379.713,145.401,380.111z M548.051,258.399c-0.698,1.221-1.12,1.633-1.05,1.927 c0.076,0.315,0.639,0.738,0.945,0.705c0.288-0.031,0.695-0.579,0.727-0.93C548.71,259.7,548.391,259.266,548.051,258.399z M522.749,127.5c-0.136-0.26-0.255-0.717-0.414-0.732c-0.277-0.025-0.579,0.223-0.871,0.356c0.197,0.328,0.395,0.656,0.592,0.984 C522.288,127.905,522.518,127.703,522.749,127.5z M267.869,391.873c0.26,0.343,0.473,0.896,0.795,0.97 c0.317,0.072,0.745-0.341,2.031-1.02c-0.918-0.372-1.362-0.706-1.777-0.674C268.552,391.178,268.217,391.616,267.869,391.873z M149.709,286.446c0.424,0.115,0.848,0.301,1.272,0.304c0.131,0.001,0.387-0.5,0.373-0.76c-0.024-0.437-0.218-0.865-0.519-1.926 C150.086,285.648,149.897,286.047,149.709,286.446z M653.516,131.946c0.655,0.256,1.07,0.417,1.484,0.579 c0.124-0.401,0.345-0.808,0.326-1.202c-0.009-0.172-0.613-0.517-0.771-0.437C654.205,131.063,653.966,131.46,653.516,131.946z M417.149,279.515c0.129,0.415,0.292,0.935,0.617,1.13c0.2,0.12,0.71-0.277,1.347-0.56c-0.579-0.475-0.886-0.825-1.271-0.992 C417.689,279.027,417.127,279.443,417.149,279.515z M590.335,133.313c0.239-0.159,0.478-0.317,0.717-0.477 c-0.099-0.299-0.121-0.685-0.325-0.861c-0.121-0.104-0.529,0.124-0.807,0.203C590.058,132.557,590.197,132.935,590.335,133.313z M666.033,131.675c-0.252-0.332-0.457-0.864-0.771-0.939c-0.303-0.073-0.719,0.325-1.966,0.977c0.891,0.361,1.318,0.682,1.718,0.651 C665.369,132.338,665.694,131.921,666.033,131.675z M546.762,274.588c0.111,0.235,0.185,0.67,0.385,0.739 c0.216,0.075,0.552-0.193,0.834-0.311c-0.207-0.357-0.414-0.714-0.621-1.071C547.165,274.156,546.969,274.366,546.762,274.588z M509.594,275.332c0.459-0.083,0.887-0.332,2.024-0.797c-1.572-0.521-2.126-0.881-2.353-0.735c-0.292,0.188-0.368,0.777-0.426,1.208 C508.828,275.09,509.356,275.375,509.594,275.332z M213.365,273.82c-0.308-0.072-0.727,0.332-1.336,0.653 c0.494,0.471,0.785,0.972,1.093,0.982c0.331,0.011,0.678-0.438,1.018-0.687C213.887,274.432,213.68,273.893,213.365,273.82z M583.962,387.511c0.232,0.092,0.658-0.302,1.9-0.949c-0.915-0.362-1.333-0.665-1.734-0.644c-0.338,0.018-0.655,0.412-0.982,0.64 C583.411,386.893,583.618,387.375,583.962,387.511z M533.554,273.634c-0.034,0.304,0.378,0.658,0.785,1.274 c0.352-0.61,0.642-0.924,0.689-1.27c0.026-0.189-0.416-0.648-0.55-0.613C534.122,273.118,533.581,273.386,533.554,273.634z M547.344,287.733c0.234-0.185,0.468-0.369,0.703-0.555c-0.125-0.292-0.178-0.701-0.398-0.833c-0.159-0.096-0.539,0.176-0.821,0.283 C547,286.997,547.172,287.365,547.344,287.733z M587.163,373.315c-0.596-0.325-1.01-0.736-1.309-0.665 c-0.321,0.076-0.535,0.605-0.795,0.936c0.338,0.255,0.68,0.713,1.013,0.706C586.378,374.287,586.674,373.781,587.163,373.315z M469.779,245.847c-0.167-0.253-0.298-0.664-0.512-0.712c-0.22-0.05-0.52,0.253-0.785,0.401c0.246,0.336,0.491,0.673,0.737,1.009 C469.406,246.313,469.592,246.08,469.779,245.847z M586.052,242.608c0.253,0.333,0.457,0.864,0.773,0.941 c0.302,0.073,0.719-0.325,1.985-0.987c-0.904-0.359-1.334-0.677-1.736-0.645C586.718,241.945,586.392,242.362,586.052,242.608z M489.213,369.201c-0.014,0.236,0.503,0.591,0.848,0.717c0.139,0.051,0.635-0.366,0.64-0.578c0.008-0.348-0.252-0.702-0.534-1.376 C489.672,368.566,489.233,368.872,489.213,369.201z M615.142,305.192c0.192-0.205,0.385-0.409,0.587-0.623 c-0.111-0.236-0.182-0.662-0.378-0.73c-0.21-0.073-0.537,0.19-0.814,0.306C614.739,304.493,614.94,304.843,615.142,305.192z M657.033,237.209c0.101,0.375,0.393,0.698,0.611,1.042c0.352-0.268,0.704-0.536,1.322-1.008c-0.612-0.291-0.956-0.558-1.318-0.586 C657.446,236.64,656.998,237.077,657.033,237.209z M448.678,238.444c0.346-0.046,0.662-0.324,1.249-0.647 c-0.637-0.421-0.991-0.655-1.345-0.889c-0.198,0.35-0.459,0.684-0.554,1.061C448,238.077,448.473,238.472,448.678,238.444z M546.974,373.39c0.119-0.4,0.329-0.803,0.313-1.197c-0.007-0.163-0.597-0.498-0.749-0.42c-0.339,0.175-0.569,0.56-1.002,1.032 C546.175,373.065,546.574,373.227,546.974,373.39z M547.047,151.757c0.327-0.231,0.654-0.462,0.982-0.693 c-0.185-0.228-0.37-0.455-0.556-0.683c-0.245,0.159-0.647,0.283-0.694,0.487C546.718,151.13,546.944,151.458,547.047,151.757z M108.414,256.048c0.115-0.4,0.327-0.807,0.301-1.198c-0.011-0.175-0.603-0.516-0.748-0.438c-0.337,0.18-0.562,0.568-0.986,1.045 C107.614,255.717,108.014,255.883,108.414,256.048z M404.916,255.399c-0.011,0.083,0.499,0.36,0.726,0.317 c0.438-0.083,0.846-0.33,1.902-0.78c-1.464-0.482-1.98-0.825-2.224-0.687C405.045,254.405,404.968,254.988,404.916,255.399z M432.115,255.273c-0.088-0.28-0.176-0.56-0.265-0.839c-0.287,0.094-0.574,0.187-0.86,0.281c0.117,0.349,0.233,0.697,0.35,1.046 C431.598,255.599,431.856,255.436,432.115,255.273z M560.417,297.475c-0.412,0.081-0.967,0.185-1.142,0.478 c-0.134,0.225,0.22,0.742,0.451,1.397c0.483-0.518,0.845-0.794,1.03-1.16C560.834,298.037,560.49,297.461,560.417,297.475z M450.575,250.819c0.05-0.205-0.268-0.714-0.348-0.699c-0.414,0.076-0.957,0.176-1.153,0.469c-0.136,0.203,0.216,0.733,0.651,1.983 C450.194,251.64,450.47,251.25,450.575,250.819z M478.772,342.804c0.013,0.411,0.3,0.814,0.475,1.221 c0.212-0.171,0.424-0.341,0.746-0.6c-0.126-0.381-0.263-0.795-0.4-1.208C479.303,342.413,478.767,342.617,478.772,342.804z M608.237,224.638c-0.325,0.174-0.542,0.55-0.951,1.012c0.601,0.242,0.989,0.399,1.377,0.556c0.112-0.374,0.327-0.758,0.294-1.118 C608.94,224.903,608.373,224.566,608.237,224.638z M621.305,175.491c0.151,0.268,0.245,0.631,0.474,0.771 c0.167,0.101,0.514-0.095,0.78-0.159c-0.144-0.27-0.227-0.646-0.451-0.774C621.93,175.226,621.579,175.426,621.305,175.491z M181.444,106.411c-0.164-0.102-0.511,0.088-0.776,0.149c0.141,0.271,0.22,0.645,0.442,0.775c0.176,0.103,0.528-0.092,0.802-0.154 C181.763,106.914,181.672,106.553,181.444,106.411z M555.791,169.369c-0.298,0.195-0.843,0.392-0.841,0.584 c0.004,0.397,0.3,0.791,0.475,1.186c0.217-0.166,0.434-0.332,0.767-0.588C556.066,170.177,555.929,169.773,555.791,169.369z M145.578,131.285c-0.108-0.021-0.496,0.528-0.439,0.725c0.115,0.397,0.446,0.731,0.689,1.092c0.256-0.356,0.512-0.712,0.884-1.23 C146.244,131.61,145.929,131.353,145.578,131.285z M585.358,298.929c-0.154-0.168-0.308-0.337-0.463-0.505 c-0.192,0.152-0.383,0.305-0.574,0.457c0.096,0.112,0.211,0.33,0.285,0.316C584.865,299.15,585.109,299.024,585.358,298.929z M227.358,435.083c0.29-0.057,0.564-0.197,0.843-0.308c-0.101-0.131-0.226-0.384-0.297-0.369c-0.291,0.059-0.566,0.2-0.846,0.31 C227.159,434.845,227.284,435.097,227.358,435.083z M262.587,435.251c-0.174-0.218-0.349-0.436-0.523-0.653 c-0.128,0.109-0.379,0.241-0.363,0.324c0.055,0.297,0.2,0.577,0.311,0.864C262.203,435.607,262.395,435.429,262.587,435.251z M565.724,303.893c-0.123,0.107-0.363,0.236-0.348,0.317c0.053,0.287,0.194,0.557,0.301,0.834c0.184-0.173,0.368-0.346,0.552-0.519 C566.062,304.314,565.893,304.103,565.724,303.893z M485.747,434.043c0.292-0.057,0.567-0.2,0.849-0.31 c-0.105-0.127-0.233-0.374-0.31-0.359c-0.292,0.057-0.568,0.198-0.85,0.309C485.541,433.811,485.67,434.058,485.747,434.043z M559.663,300.879c0.255,0.111,0.503,0.251,0.77,0.313c0.07,0.017,0.197-0.206,0.298-0.319c-0.254-0.111-0.502-0.251-0.768-0.313 C559.89,300.544,559.764,300.766,559.663,300.879z M433.973,286.47c0.111,0.126,0.254,0.374,0.327,0.355 c0.289-0.075,0.557-0.235,0.833-0.363c-0.111-0.126-0.221-0.252-0.332-0.378C434.524,286.212,434.248,286.341,433.973,286.47z M578.058,440.791c-0.148,0.36-0.298,0.635-0.359,0.929c-0.016,0.077,0.209,0.203,0.34,0.311c0.131-0.142,0.269-0.277,0.4-0.419 c0.049-0.067,0.113-0.133,0.119-0.204C578.574,441.226,578.252,441.015,578.058,440.791z M257.393,441.343 c-0.154-0.188-0.39-0.309-0.605-0.466c-0.084,0.322-0.158,0.606-0.232,0.89c0.26,0.011,0.522,0.046,0.776,0.013 C257.376,441.775,257.46,441.425,257.393,441.343z M192.228,441.939c-0.207,0.148-0.552,0.343-0.539,0.499 c0.019,0.225,0.302,0.429,0.475,0.641c0.125-0.271,0.28-0.534,0.353-0.818C192.538,442.18,192.245,441.928,192.228,441.939z M416.145,391.729c0.05,0.283,0.187,0.55,0.292,0.823c0.182-0.169,0.364-0.339,0.546-0.509c-0.165-0.21-0.331-0.42-0.497-0.63 C416.366,391.52,416.131,391.646,416.145,391.729z M590.422,379.068c-0.124,0.105-0.365,0.232-0.35,0.31 c0.055,0.283,0.196,0.549,0.305,0.822c0.187-0.17,0.373-0.339,0.56-0.51C590.764,379.483,590.593,379.275,590.422,379.068z M441.869,377.327c0.051,0.291,0.193,0.566,0.3,0.846c0.189-0.174,0.378-0.348,0.567-0.523c-0.172-0.217-0.344-0.433-0.515-0.65 C442.096,377.111,441.854,377.242,441.869,377.327z M496.772,384.273c0.264,0.141,0.527,0.282,0.754,0.403 c0.135-0.12,0.259-0.23,0.383-0.34c-0.264-0.14-0.518-0.311-0.799-0.4C497.039,383.913,496.887,384.153,496.772,384.273z M220.33,293.366c-0.113-0.277-0.227-0.553-0.34-0.829c-0.124,0.068-0.346,0.125-0.355,0.206c-0.032,0.278,0.011,0.564,0.024,0.847 C219.883,293.516,220.106,293.442,220.33,293.366z M514.53,331.095c0.006,0.044,0.324,0.123,0.402,0.062 c0.174-0.135,0.288-0.348,0.436-0.542c-0.298-0.076-0.56-0.143-0.822-0.21C514.534,330.636,514.499,330.87,514.53,331.095z M477.303,330.565c0.112,0.207,0.224,0.414,0.336,0.621c0.263-0.13,0.524-0.261,0.786-0.392c-0.098-0.126-0.193-0.355-0.294-0.359 C477.857,330.427,477.579,330.515,477.303,330.565z M589.403,417.197c0.107,0.129,0.237,0.379,0.316,0.363 c0.296-0.057,0.576-0.201,0.863-0.313c-0.107-0.127-0.237-0.376-0.317-0.361C589.968,416.943,589.688,417.086,589.403,417.197z M279.681,355.485c-0.105-0.123-0.231-0.361-0.311-0.346c-0.287,0.053-0.559,0.19-0.836,0.296c0.105,0.122,0.23,0.359,0.311,0.344 C279.132,355.728,279.404,355.591,279.681,355.485z M220.318,355.092c-0.126-0.262-0.252-0.523-0.378-0.784 c-0.122,0.099-0.344,0.195-0.347,0.299c-0.009,0.272,0.076,0.548,0.124,0.822C219.918,355.316,220.118,355.204,220.318,355.092z M430.377,355.101c-0.135-0.263-0.27-0.525-0.406-0.787c-0.13,0.096-0.367,0.19-0.37,0.289c-0.007,0.277,0.083,0.555,0.135,0.833 C429.95,355.325,430.163,355.214,430.377,355.101z M430.672,341.718c-0.267,0.116-0.547,0.237-0.828,0.359 c0.117,0.118,0.26,0.351,0.346,0.331c0.293-0.065,0.565-0.22,0.845-0.34C430.916,341.953,430.797,341.838,430.672,341.718z M280.881,416.532c0.3-0.059,0.583-0.204,0.872-0.317c-0.105-0.134-0.234-0.394-0.309-0.379c-0.3,0.059-0.582,0.204-0.871,0.317 C280.678,416.286,280.807,416.547,280.881,416.532z M503.655,404.633c-0.016,0.087,0.201,0.217,0.312,0.327 c0.159-0.203,0.425-0.397,0.443-0.612c0.014-0.166-0.283-0.358-0.453-0.55C503.842,404.095,503.704,404.356,503.655,404.633z M245.333,366.96c-0.009,0.27,0.075,0.544,0.123,0.816c0.199-0.111,0.397-0.222,0.597-0.334c-0.125-0.26-0.25-0.519-0.375-0.779 C245.556,366.763,245.336,366.858,245.333,366.96z M257.359,317.823c0.018-0.168-0.307-0.373-0.494-0.578 c-0.132,0.323-0.278,0.592-0.334,0.878c-0.017,0.085,0.22,0.22,0.34,0.332C257.046,318.245,257.336,318.048,257.359,317.823z M589.393,317.378c0.284,0.12,0.56,0.273,0.857,0.338c0.083,0.018,0.224-0.225,0.361-0.374c-0.124-0.112-0.275-0.338-0.369-0.316 C589.948,317.093,589.674,317.254,589.393,317.378z M146.227,317.769c-0.148-0.184-0.377-0.302-0.587-0.457 c-0.08,0.315-0.15,0.592-0.22,0.869c0.247,0.012,0.498,0.049,0.738,0.015C146.206,318.19,146.291,317.849,146.227,317.769z M232.286,428.423c-0.128,0.103-0.361,0.202-0.365,0.309c-0.009,0.283,0.081,0.568,0.131,0.852c0.212-0.115,0.424-0.231,0.637-0.347 C232.556,428.965,232.421,428.694,232.286,428.423z M491.92,428.947c0.283-0.052,0.551-0.191,0.824-0.297 c-0.169-0.184-0.339-0.369-0.508-0.553c-0.21,0.168-0.418,0.335-0.627,0.503C491.714,428.723,491.841,428.961,491.92,428.947z M490.856,404.176c0.006,0.044,0.333,0.125,0.413,0.063c0.178-0.14,0.295-0.36,0.446-0.56c-0.305-0.08-0.573-0.149-0.841-0.219 C490.862,403.7,490.826,403.942,490.856,404.176z M280.893,404.175c0.298-0.059,0.578-0.204,0.864-0.318 c-0.107-0.13-0.239-0.382-0.317-0.367c-0.297,0.059-0.577,0.205-0.863,0.319C280.684,403.938,280.815,404.19,280.893,404.175z M454.621,403.724c0.163,0.167,0.336,0.479,0.486,0.468c0.211-0.016,0.404-0.27,0.605-0.424c-0.255-0.111-0.503-0.251-0.769-0.313 C454.861,403.436,454.73,403.629,454.621,403.724z M150.878,324.529c0.266,0.14,0.532,0.28,0.757,0.398 c0.137-0.121,0.263-0.231,0.388-0.342c-0.267-0.14-0.525-0.31-0.809-0.399C151.145,324.164,150.993,324.407,150.878,324.529z M300.249,323.401c-0.133,0.103-0.375,0.204-0.377,0.311c-0.008,0.289,0.086,0.58,0.14,0.87c0.218-0.118,0.437-0.236,0.656-0.355 C300.528,323.95,300.388,323.675,300.249,323.401z M287.88,360.461c-0.137,0.101-0.387,0.201-0.389,0.303 c-0.004,0.291,0.095,0.583,0.153,0.874c0.223-0.118,0.446-0.235,0.67-0.354C288.17,361.009,288.025,360.736,287.88,360.461z M220.993,318.319c-0.298-0.12-0.561-0.262-0.842-0.316c-0.082-0.016-0.213,0.215-0.322,0.332c0.204,0.169,0.398,0.45,0.617,0.471 C220.608,318.823,220.802,318.501,220.993,318.319z M403.771,318.592c0.057,0.295,0.201,0.574,0.312,0.858 c0.193-0.176,0.387-0.352,0.58-0.529c-0.175-0.217-0.351-0.432-0.526-0.648C404.008,318.382,403.756,318.512,403.771,318.592z M699.035,0.713c-0.145-0.186-0.373-0.306-0.581-0.463c-0.08,0.319-0.151,0.6-0.222,0.88c0.247,0.012,0.498,0.048,0.739,0.014 C699.018,1.137,699.101,0.797,699.035,0.713z M443.35,170.052c-0.288-0.12-0.532-0.255-0.794-0.31 c-0.074-0.015-0.197,0.203-0.298,0.314c0.188,0.161,0.366,0.427,0.569,0.448C442.98,170.52,443.166,170.222,443.35,170.052z M239.529,175.335c-0.266-0.131-0.523-0.296-0.803-0.374c-0.082-0.023-0.232,0.2-0.351,0.311c0.265,0.132,0.53,0.264,0.796,0.395 C239.291,175.555,239.41,175.445,239.529,175.335z M515.424,177.213c-0.125,0.067-0.347,0.123-0.357,0.204 c-0.032,0.276,0.011,0.56,0.025,0.841c0.223-0.076,0.445-0.152,0.668-0.229C515.649,177.756,515.537,177.485,515.424,177.213z M536.229,178.77c0.285-0.077,0.548-0.236,0.819-0.365c-0.109-0.125-0.218-0.249-0.328-0.374c-0.271,0.129-0.542,0.258-0.812,0.388 C536.016,178.543,536.159,178.79,536.229,178.77z M556.471,180.512c0.163-0.206,0.433-0.401,0.454-0.62 c0.016-0.165-0.288-0.36-0.461-0.554c-0.117,0.299-0.256,0.562-0.307,0.841C556.141,180.268,556.36,180.4,556.471,180.512z M516.212,181.465c0.199-0.113,0.397-0.226,0.597-0.339c-0.123-0.264-0.247-0.528-0.371-0.792c-0.121,0.101-0.339,0.198-0.343,0.304 C516.084,180.912,516.167,181.189,516.212,181.465z M733.025,16.418c-0.145-0.277-0.291-0.552-0.437-0.828 c-0.136,0.103-0.383,0.204-0.386,0.311c-0.007,0.29,0.089,0.582,0.144,0.873C732.572,16.656,732.798,16.538,733.025,16.418z M41.838,14.565c-0.126,0.103-0.354,0.204-0.357,0.311c-0.009,0.281,0.08,0.566,0.129,0.849c0.207-0.116,0.414-0.232,0.621-0.35 C42.101,15.106,41.969,14.835,41.838,14.565z M627.635,20.908c-0.105-0.121-0.231-0.359-0.311-0.344 c-0.287,0.051-0.56,0.188-0.837,0.294c0.105,0.123,0.231,0.361,0.311,0.346C627.086,21.151,627.357,21.013,627.635,20.908z M686.361,8.435c-0.124,0.066-0.346,0.12-0.355,0.2c-0.033,0.273,0.008,0.555,0.021,0.833c0.224-0.072,0.449-0.144,0.674-0.217 C686.588,8.978,686.474,8.706,686.361,8.435z M664.695,8.558c-0.104-0.123-0.231-0.363-0.31-0.349 c-0.288,0.054-0.561,0.192-0.839,0.3c0.105,0.124,0.232,0.365,0.31,0.35C664.145,8.804,664.417,8.665,664.695,8.558z M628.382,195.52c-0.294,0.063-0.571,0.206-0.854,0.321c0.099,0.135,0.226,0.398,0.294,0.383c0.294-0.062,0.572-0.205,0.855-0.32 C628.577,195.768,628.45,195.506,628.382,195.52z M312.632,199.947c-0.263-0.112-0.52-0.253-0.794-0.315 c-0.087-0.019-0.221,0.174-0.334,0.27c0.168,0.168,0.346,0.48,0.502,0.469C312.223,200.357,312.424,200.101,312.632,199.947z M324.741,187.342c-0.269-0.01-0.542,0.074-0.813,0.121c0.111,0.196,0.222,0.392,0.334,0.589c0.259-0.123,0.518-0.246,0.776-0.369 C324.94,187.562,324.844,187.346,324.741,187.342z M596.373,187.827c-0.008,0.276,0.082,0.555,0.134,0.833 c0.21-0.112,0.421-0.225,0.632-0.338c-0.133-0.263-0.266-0.526-0.4-0.788C596.61,187.632,596.376,187.726,596.373,187.827z M507.065,94.96c0.106,0.134,0.236,0.394,0.314,0.379c0.303-0.057,0.59-0.202,0.882-0.316c-0.106-0.135-0.237-0.395-0.314-0.38 C507.644,94.702,507.358,94.847,507.065,94.96z M108.106,94.477c0.016-0.165-0.308-0.363-0.491-0.557 c-0.121,0.304-0.265,0.572-0.319,0.857c-0.016,0.085,0.217,0.218,0.336,0.329C107.802,94.897,108.084,94.7,108.106,94.477z M509.431,101.545c0.29-0.061,0.562-0.203,0.841-0.316c-0.099-0.133-0.225-0.391-0.292-0.377c-0.291,0.063-0.565,0.206-0.845,0.319 C509.236,101.303,509.362,101.559,509.431,101.545z M633.583,99.832c-0.276-0.007-0.553,0.083-0.831,0.134 c0.111,0.212,0.223,0.425,0.335,0.638c0.262-0.134,0.523-0.269,0.785-0.404C633.776,100.071,633.683,99.835,633.583,99.832z M696.305,89.744c0.212-0.073,0.425-0.146,0.638-0.219c-0.105-0.269-0.212-0.536-0.318-0.803c-0.118,0.066-0.329,0.122-0.338,0.202 C696.255,89.192,696.294,89.47,696.305,89.744z M218.812,119.759c0.103,0.119,0.227,0.352,0.306,0.338 c0.277-0.05,0.539-0.185,0.807-0.287c-0.165-0.18-0.331-0.36-0.497-0.54C219.222,119.433,219.017,119.596,218.812,119.759z M269.33,131.927c-0.135,0.103-0.38,0.202-0.383,0.308c-0.007,0.287,0.088,0.577,0.143,0.866c0.224-0.117,0.448-0.233,0.673-0.351 C269.618,132.475,269.474,132.201,269.33,131.927z M565.799,132.157c-0.158-0.171-0.315-0.343-0.474-0.514 c-0.197,0.155-0.392,0.309-0.589,0.464c0.098,0.114,0.216,0.335,0.292,0.322C565.293,132.382,565.544,132.254,565.799,132.157z M553.472,107.234c-0.129,0.102-0.363,0.2-0.366,0.306c-0.009,0.281,0.082,0.565,0.133,0.848c0.214-0.114,0.427-0.229,0.641-0.345 C553.744,107.773,553.608,107.504,553.472,107.234z M670.42,113.746c0.046,0.29,0.183,0.565,0.285,0.845 c0.175-0.177,0.351-0.354,0.528-0.529c-0.159-0.215-0.319-0.43-0.48-0.646C670.636,113.527,670.406,113.656,670.42,113.746z M400.002,112.375c-0.121,0.111-0.356,0.242-0.341,0.331c0.049,0.293,0.188,0.571,0.293,0.854c0.176-0.181,0.352-0.362,0.53-0.546 C400.329,112.808,400.166,112.592,400.002,112.375z M653.035,45.265c-0.284,0.063-0.549,0.213-0.821,0.329 c0.274,0.113,0.542,0.26,0.827,0.318c0.094,0.019,0.235-0.195,0.352-0.301C653.257,45.473,653.119,45.247,653.035,45.265z M146.411,156.103c-0.023,0.237,0.185,0.497,0.295,0.747c0.199-0.139,0.545-0.263,0.561-0.419c0.024-0.237-0.183-0.497-0.294-0.747 C146.773,155.821,146.426,155.946,146.411,156.103z M516.479,155.663c-0.12,0.068-0.333,0.124-0.344,0.205 c-0.034,0.272,0.005,0.552,0.017,0.83c0.218-0.072,0.436-0.143,0.655-0.215C516.698,156.208,516.588,155.936,516.479,155.663z M720.193,29.303c0.163-0.221,0.447-0.439,0.453-0.665c0.006-0.232-0.259-0.472-0.406-0.708c-0.163,0.224-0.446,0.443-0.454,0.671 C719.779,28.831,720.046,29.069,720.193,29.303z M480.773,159.342c-0.136-0.174-0.348-0.287-0.543-0.436 c-0.078,0.302-0.146,0.566-0.215,0.83c0.237,0.01,0.476,0.039,0.708,0.009C480.762,159.74,480.835,159.422,480.773,159.342z M226.197,162.92c-0.123-0.109-0.272-0.33-0.367-0.309c-0.291,0.065-0.561,0.224-0.84,0.346c0.28,0.118,0.553,0.27,0.846,0.334 C225.919,163.309,226.057,163.07,226.197,162.92z M491.422,156.91c-0.035,0.273,0.002,0.556,0.012,0.836 c0.222-0.071,0.444-0.141,0.666-0.213c-0.11-0.276-0.221-0.552-0.332-0.827C491.647,156.773,491.432,156.828,491.422,156.91z M590.931,33.656c-0.154-0.183-0.387-0.299-0.599-0.451c-0.083,0.31-0.157,0.584-0.231,0.858c0.255,0.013,0.513,0.048,0.763,0.018 C590.909,34.075,590.995,33.732,590.931,33.656z M479.416,146.488c-0.113,0.063-0.311,0.114-0.322,0.19 c-0.035,0.254-0.003,0.517,0.004,0.777c0.208-0.064,0.415-0.127,0.623-0.192C479.62,147.005,479.518,146.746,479.416,146.488z M157.734,144.676c0.049,0.294,0.19,0.572,0.296,0.856c0.186-0.177,0.372-0.354,0.558-0.532c-0.17-0.221-0.339-0.44-0.509-0.66 C157.957,144.452,157.719,144.585,157.734,144.676z M706.843,71.201c-0.115,0.092-0.323,0.181-0.326,0.277 c-0.008,0.254,0.073,0.51,0.119,0.765c0.188-0.105,0.377-0.209,0.566-0.315C707.082,71.685,706.963,71.443,706.843,71.201z M670.899,50.657c-0.12,0.067-0.332,0.123-0.342,0.203c-0.034,0.272,0.005,0.552,0.016,0.83c0.217-0.072,0.435-0.143,0.653-0.215 C671.117,51.201,671.008,50.929,670.899,50.657z M654.251,146.47c0.117,0.125,0.263,0.373,0.345,0.354 c0.299-0.072,0.576-0.234,0.861-0.362c-0.116-0.126-0.232-0.251-0.349-0.378C654.822,146.213,654.536,146.341,654.251,146.47z M668.731,61.135c-0.187-0.157-0.363-0.414-0.566-0.438c-0.147-0.017-0.331,0.274-0.508,0.437c0.273,0.113,0.514,0.246,0.77,0.298 C668.505,61.448,668.628,61.24,668.731,61.135z M392.931,254.616c-0.105-0.133-0.236-0.392-0.309-0.376 c-0.297,0.064-0.576,0.211-0.862,0.328c0.105,0.132,0.237,0.388,0.311,0.373C392.367,254.879,392.646,254.732,392.931,254.616z M213.5,249.08c-0.292,0.057-0.567,0.2-0.849,0.31c0.105,0.127,0.233,0.374,0.31,0.359c0.292-0.056,0.568-0.198,0.849-0.308 C213.705,249.312,213.577,249.065,213.5,249.08z M239.538,458.398c-0.278-0.116-0.55-0.264-0.84-0.324 c-0.084-0.017-0.221,0.217-0.333,0.335c0.278,0.115,0.55,0.264,0.84,0.325C239.289,458.751,239.425,458.517,239.538,458.398z M540.755,453.437c-0.009,0.286,0.083,0.576,0.135,0.865c0.216-0.118,0.431-0.235,0.647-0.354c-0.137-0.276-0.275-0.551-0.412-0.825 C540.994,453.227,540.758,453.328,540.755,453.437z M479.947,454.092c-0.017,0.085,0.227,0.221,0.352,0.333 c0.175-0.214,0.467-0.419,0.487-0.646c0.015-0.172-0.319-0.375-0.508-0.575C480.152,453.519,480.004,453.797,479.947,454.092z M568.644,261.727c0.222-0.07,0.443-0.141,0.666-0.212c-0.11-0.276-0.221-0.552-0.331-0.827c-0.121,0.067-0.335,0.123-0.346,0.204 C568.597,261.166,568.635,261.448,568.644,261.727z M244.21,454.123c0.257,0.011,0.517,0.046,0.768,0.012 c0.045-0.006,0.129-0.354,0.062-0.438c-0.151-0.188-0.385-0.31-0.599-0.469C244.357,453.553,244.283,453.838,244.21,454.123z M497.928,237.061c-0.277-0.116-0.547-0.264-0.835-0.326c-0.082-0.017-0.218,0.217-0.329,0.337c0.277,0.116,0.546,0.264,0.834,0.326 C497.68,237.416,497.816,237.181,497.928,237.061z M509.436,459.775c0.291-0.053,0.565-0.191,0.845-0.298 c-0.102-0.128-0.227-0.376-0.303-0.362c-0.291,0.055-0.567,0.193-0.848,0.3C509.234,459.543,509.359,459.789,509.436,459.775z M237.336,274.118c0.282,0.124,0.557,0.28,0.852,0.351c0.074,0.018,0.214-0.235,0.324-0.365c-0.282-0.125-0.557-0.279-0.852-0.35 C237.585,273.736,237.446,273.989,237.336,274.118z M268.937,280.43c-0.004,0.29,0.095,0.581,0.153,0.872 c0.223-0.12,0.446-0.24,0.67-0.362c-0.145-0.273-0.291-0.546-0.437-0.818C269.187,280.225,268.939,280.326,268.937,280.43z M350.013,263.235c-0.13-0.177-0.342-0.294-0.535-0.447c-0.077,0.306-0.144,0.573-0.211,0.839c0.229,0.012,0.462,0.048,0.685,0.017 C349.996,263.637,350.074,263.319,350.013,263.235z M553.889,452.796c-0.172-0.219-0.346-0.438-0.518-0.656 c-0.125,0.112-0.368,0.246-0.352,0.333c0.052,0.295,0.197,0.573,0.307,0.858C553.513,453.153,553.701,452.975,553.889,452.796z M231.997,453.195c0.23-0.072,0.461-0.144,0.692-0.217c-0.116-0.28-0.232-0.559-0.348-0.837c-0.126,0.067-0.35,0.123-0.361,0.205 C231.945,452.624,231.986,452.911,231.997,453.195z M263.2,261.674c-0.134,0.098-0.379,0.193-0.382,0.294 c-0.008,0.282,0.085,0.567,0.138,0.85c0.222-0.113,0.444-0.225,0.667-0.339C263.482,262.211,263.341,261.943,263.2,261.674z M393.641,267.625c-0.293,0.063-0.57,0.209-0.852,0.326c0.104,0.133,0.234,0.389,0.306,0.374c0.293-0.064,0.568-0.21,0.85-0.326 C393.842,267.866,393.713,267.61,393.641,267.625z M411.146,212.033c-0.299,0.056-0.582,0.201-0.87,0.312 c0.11,0.127,0.241,0.374,0.324,0.358c0.299-0.055,0.582-0.199,0.871-0.31C411.361,212.265,411.228,212.017,411.146,212.033z M435.309,212.691c0.292-0.053,0.568-0.192,0.85-0.299c-0.107-0.123-0.234-0.362-0.317-0.348c-0.292,0.052-0.569,0.19-0.851,0.297 C435.099,212.465,435.227,212.705,435.309,212.691z M543.82,213.147c-0.016,0.087,0.202,0.216,0.312,0.325 c0.161-0.202,0.427-0.395,0.446-0.61c0.014-0.163-0.287-0.353-0.459-0.543C544.005,212.614,543.869,212.872,543.82,213.147z M504.122,218.456c-0.12,0.067-0.333,0.123-0.343,0.204c-0.034,0.272,0.005,0.553,0.016,0.83c0.218-0.072,0.436-0.143,0.654-0.215 C504.34,219.001,504.231,218.728,504.122,218.456z M237.87,482.828c-0.117-0.27-0.235-0.539-0.353-0.808 c-0.128,0.063-0.357,0.113-0.367,0.191c-0.035,0.27,0.007,0.549,0.02,0.824C237.404,482.967,237.636,482.898,237.87,482.828z M297.04,202.131c0.164-0.206,0.434-0.401,0.455-0.62c0.016-0.163-0.291-0.358-0.465-0.551c-0.116,0.298-0.255,0.56-0.306,0.839 C296.71,201.887,296.929,202.019,297.04,202.131z M416.467,207.326c0.18-0.216,0.479-0.42,0.501-0.651 c0.017-0.178-0.314-0.389-0.508-0.606c-0.14,0.345-0.29,0.623-0.348,0.92C416.094,207.074,416.341,207.212,416.467,207.326z M453.708,206.138c-0.177,0.175-0.506,0.361-0.495,0.523c0.016,0.226,0.285,0.435,0.448,0.651c0.118-0.275,0.266-0.542,0.332-0.828 C454.014,206.395,453.81,206.255,453.708,206.138z M528.425,206.351c-0.009,0.281,0.08,0.565,0.13,0.848 c0.206-0.116,0.412-0.232,0.618-0.35c-0.13-0.27-0.261-0.539-0.391-0.808C528.657,206.144,528.429,206.244,528.425,206.351z M638.84,230.882c0.101,0.135,0.231,0.396,0.296,0.38c0.291-0.068,0.564-0.216,0.843-0.334c-0.101-0.134-0.231-0.395-0.296-0.38 C639.393,230.616,639.119,230.763,638.84,230.882z M472.918,466.277c-0.29,0.061-0.563,0.206-0.842,0.321 c0.103,0.131,0.231,0.385,0.301,0.37c0.291-0.064,0.565-0.209,0.845-0.323C473.119,466.515,472.99,466.262,472.918,466.277z M655.997,230.693c0.255,0.012,0.513,0.049,0.762,0.015c0.047-0.006,0.133-0.355,0.067-0.438c-0.151-0.188-0.386-0.31-0.601-0.468 C656.143,230.125,656.07,230.408,655.997,230.693z M455.081,232.473c-0.171-0.22-0.342-0.438-0.513-0.657 c-0.125,0.112-0.367,0.245-0.352,0.332c0.051,0.295,0.194,0.575,0.303,0.86C454.706,232.83,454.893,232.652,455.081,232.473z M484.758,472.129c0.287-0.067,0.554-0.22,0.828-0.341c-0.12-0.111-0.24-0.221-0.37-0.341c-0.247,0.109-0.521,0.23-0.796,0.351 C484.535,471.916,484.676,472.148,484.758,472.129z M237.321,471.725c-0.116,0.276-0.264,0.544-0.323,0.83 c-0.017,0.082,0.226,0.217,0.349,0.327c0.179-0.209,0.469-0.403,0.498-0.631C237.865,472.101,237.511,471.902,237.321,471.725z M663.856,219.926c0.29-0.068,0.562-0.215,0.84-0.334c-0.1-0.135-0.229-0.398-0.293-0.383c-0.29,0.07-0.562,0.217-0.84,0.336 C663.663,219.68,663.792,219.941,663.856,219.926z M583.964,227.229c0.023,0.225,0.301,0.424,0.472,0.633 c0.122-0.269,0.273-0.531,0.344-0.813c0.02-0.079-0.269-0.324-0.287-0.312C584.289,226.883,583.949,227.079,583.964,227.229z M411.041,224.881c-0.007,0.276,0.083,0.554,0.134,0.831c0.21-0.112,0.42-0.225,0.631-0.339c-0.134-0.263-0.269-0.525-0.403-0.788 C411.275,224.683,411.043,224.779,411.041,224.881z" fill="#ffffff"/></g></svg>