<?xml version="1.0" encoding="UTF-8" standalone="no"?><svg xmlns="http://www.w3.org/2000/svg" xmlns:xlink="http://www.w3.org/1999/xlink" fill="#ff5dbe" height="600" preserveAspectRatio="xMidYMid meet" version="1" viewBox="0.0 0.0 321.9 600.0" width="321.9" zoomAndPan="magnify"><g id="change1_1"><path d="M 304.636719 548.15625 C 304.636719 567.242188 289.164062 582.71875 270.074219 582.71875 L 51.84375 582.71875 C 32.753906 582.71875 17.28125 567.242188 17.28125 548.15625 L 17.28125 51.84375 C 17.28125 32.753906 32.753906 17.28125 51.84375 17.28125 L 96.234375 17.28125 C 98.578125 17.28125 100.480469 19.183594 100.480469 21.527344 L 100.480469 23.71875 C 100.480469 32.421875 107.535156 39.480469 116.238281 39.480469 L 205.679688 39.480469 C 214.382812 39.480469 221.441406 32.421875 221.441406 23.71875 L 221.441406 21.527344 C 221.441406 19.183594 223.339844 17.28125 225.683594 17.28125 L 270.074219 17.28125 C 289.164062 17.28125 304.636719 32.753906 304.636719 51.84375 Z M 270.074219 0 L 51.84375 0 C 23.257812 0 0 23.257812 0 51.84375 L 0 548.15625 C 0 576.742188 23.257812 600 51.84375 600 L 270.074219 600 C 298.660156 600 321.917969 576.742188 321.917969 548.15625 L 321.917969 51.84375 C 321.917969 23.257812 298.660156 0 270.074219 0" fill="inherit"/></g></svg>